<svg xmlns="http://www.w3.org/2000/svg" viewBox="0 0 513.67 237.84"><defs><style>.cls-1{fill:#fad9be;}.cls-2{fill:#00bbc1;}.cls-3{fill:#3fd8d4;}.cls-4{fill:#de4b5e;}.cls-5{fill:#ef6f84;}.cls-6{fill:#734170;}.cls-7{fill:#9a5f7f;}.cls-8{fill:#f89712;}.cls-9{fill:#fcb316;}</style></defs><title>Asset 1</title><g id="Layer_2" data-name="Layer 2"><g id="ARTBOARD_2" data-name="ARTBOARD 2"><g id="_Group_" data-name="&lt;Group&gt;"><g id="_Group_2" data-name="&lt;Group&gt;"><polygon id="_Path_" data-name="&lt;Path&gt;" class="cls-1" points="223.22 126.1 222.67 125.83 209.37 119.26 209.15 119.15 194.26 111.8 194.24 111.78 180.59 105.04 180.02 104.76 166.73 98.19 166.61 98.14 154.94 92.37 139.76 83.38 136.35 81.36 87.88 52.64 87.89 52.72 87.74 52.59 87.74 52.59 78.82 44.52 71.44 37.84 62.53 29.77 55.15 23.1 55.15 23.1 46.23 15.03 38.85 8.35 29.62 0 18.25 71.13 69.54 57.58 87.89 52.73 90.92 124.61 97.42 121.39 101.32 119.47 101.32 119.47 154.94 92.97 155.9 101.09 155.99 101.83 155.99 101.83 157.25 112.47 157.34 113.17 159.95 135.23 160.04 135.97 160.04 135.97 161.3 146.61 161.39 147.35 162.69 158.3 162.74 158.73 163.35 163.86 225.32 127.14 223.22 126.1"/><polygon id="_Path_2" data-name="&lt;Path&gt;" class="cls-1" points="324.68 221.19 329.85 216.1 329.85 216.1 332.95 213.05 376.01 170.65 299.25 153.8 324.68 221.19"/><polygon id="_Path_3" data-name="&lt;Path&gt;" class="cls-1" points="225.3 127.2 226.51 132.28 228.75 141.68 229.97 146.77 229.97 146.77 235.67 170.65 236.88 175.73 242.03 197.26 247.8 192.87 247.8 192.87 250.89 190.51 260.34 183.31 263.79 180.68 271.48 174.82 275.63 171.65 283.32 165.79 285.42 164.19 299.32 153.6 225.3 127.2"/><polygon id="_Path_4" data-name="&lt;Path&gt;" class="cls-1" points="513.14 176.42 498.33 177.25 497.82 177.28 466.21 179.05 465.64 179.08 454.09 179.73 453.89 179.71 453.89 179.71 441.95 178.3 441.95 178.29 432.07 177.13 420.12 175.72 410.24 174.56 410.24 174.56 398.29 173.15 388.41 171.98 388.41 171.98 376.05 170.52 387.09 192.82 390.28 199.27 396.32 211.47 397.32 213.5 402.53 224.03 404.37 227.74 408 235.08 453.74 180.15 458.68 186.88 459.11 187.47 465.45 196.12 465.89 196.72 479.01 214.6 479.45 215.2 479.45 215.2 485.79 223.84 485.79 223.84 486.23 224.44 496.06 237.84 509.69 214.1 509.97 213.61 513.67 207.17 513.67 176.39 513.14 176.42"/></g><g id="_Group_3" data-name="&lt;Group&gt;"><g id="_Group_4" data-name="&lt;Group&gt;"><polygon id="_Path_5" data-name="&lt;Path&gt;" class="cls-2" points="0 71.13 11.37 0 69.64 52.73 0 71.13"/><g id="_Group_5" data-name="&lt;Group&gt;"><polygon id="_Path_6" data-name="&lt;Path&gt;" class="cls-3" points="9.95 8.88 8.81 15.98 27.98 15.03 20.6 8.35 9.95 8.88"/><polygon id="_Path_7" data-name="&lt;Path&gt;" class="cls-3" points="44.27 29.77 36.9 23.1 7.44 24.57 6.31 31.67 44.27 29.77"/><polygon id="_Path_8" data-name="&lt;Path&gt;" class="cls-3" points="60.57 44.52 53.19 37.84 4.93 40.26 3.8 47.36 60.57 44.52"/><polygon id="_Path_9" data-name="&lt;Path&gt;" class="cls-3" points="37.43 61.24 69.64 52.73 69.49 52.59 2.43 55.94 1.29 63.04 37.43 61.24"/></g></g><g id="_Group_6" data-name="&lt;Group&gt;"><polygon id="_Path_10" data-name="&lt;Path&gt;" class="cls-2" points="389.75 235.08 357.8 170.52 435.84 179.73 389.75 235.08"/><g id="_Group_7" data-name="&lt;Group&gt;"><polygon id="_Path_11" data-name="&lt;Path&gt;" class="cls-3" points="361.79 178.58 364.98 185.03 380.04 173.15 370.16 171.98 361.79 178.58"/><polygon id="_Path_12" data-name="&lt;Path&gt;" class="cls-3" points="401.87 175.72 391.99 174.56 368.83 192.82 372.02 199.27 401.87 175.72"/><polygon id="_Path_13" data-name="&lt;Path&gt;" class="cls-3" points="423.7 178.29 413.81 177.13 375.88 207.06 379.07 213.5 423.7 178.29"/><polygon id="_Path_14" data-name="&lt;Path&gt;" class="cls-3" points="414.52 205.33 435.84 179.73 435.64 179.71 382.93 221.3 386.12 227.74 414.52 205.33"/></g></g><g id="_Group_8" data-name="&lt;Group&gt;"><polygon id="_Path_15" data-name="&lt;Path&gt;" class="cls-4" points="145.1 163.86 136.61 92.33 207.07 127.14 145.1 163.86"/><g id="_Group_9" data-name="&lt;Group&gt;"><polygon id="_Path_16" data-name="&lt;Path&gt;" class="cls-5" points="137.65 101.09 137.74 101.83 148.47 98.19 147.55 97.74 137.65 101.09"/><polygon id="_Path_17" data-name="&lt;Path&gt;" class="cls-5" points="162.69 105.22 161.77 104.76 139 112.47 139.09 113.21 162.69 105.22"/><polygon id="_Path_18" data-name="&lt;Path&gt;" class="cls-5" points="176.91 112.24 175.99 111.78 140.35 123.85 140.44 124.59 176.91 112.24"/><polygon id="_Path_19" data-name="&lt;Path&gt;" class="cls-5" points="191.12 119.26 190.2 118.81 141.7 135.23 141.79 135.97 191.12 119.26"/><polygon id="_Path_20" data-name="&lt;Path&gt;" class="cls-5" points="205.34 126.29 204.42 125.83 143.05 146.61 143.14 147.35 205.34 126.29"/><polygon id="_Path_21" data-name="&lt;Path&gt;" class="cls-5" points="166.12 151.41 169.14 149.62 144.4 157.99 144.49 158.73 166.12 151.41"/></g></g><g id="_Group_10" data-name="&lt;Group&gt;"><polygon id="_Path_22" data-name="&lt;Path&gt;" class="cls-4" points="477.81 237.84 435.2 179.76 513.67 175.37 477.81 237.84"/><g id="_Group_11" data-name="&lt;Group&gt;"><polygon id="_Path_23" data-name="&lt;Path&gt;" class="cls-5" points="440.42 186.88 440.86 187.47 448.42 179.02 447.39 179.08 440.42 186.88"/><polygon id="_Path_24" data-name="&lt;Path&gt;" class="cls-5" points="464.25 178.14 463.22 178.19 447.2 196.12 447.64 196.72 464.25 178.14"/><polygon id="_Path_25" data-name="&lt;Path&gt;" class="cls-5" points="480.08 177.25 479.05 177.31 453.98 205.36 454.42 205.96 480.08 177.25"/><polygon id="_Path_26" data-name="&lt;Path&gt;" class="cls-5" points="495.91 176.36 494.89 176.42 460.76 214.6 461.2 215.2 495.91 176.36"/><polygon id="_Path_27" data-name="&lt;Path&gt;" class="cls-5" points="511.74 175.48 510.72 175.53 467.54 223.84 467.98 224.44 511.74 175.48"/><polygon id="_Path_28" data-name="&lt;Path&gt;" class="cls-5" points="489.97 216.65 491.72 213.61 474.32 233.08 474.76 233.68 489.97 216.65"/></g></g><g id="_Group_12" data-name="&lt;Group&gt;"><polygon id="_Path_29" data-name="&lt;Path&gt;" class="cls-6" points="72.66 124.61 69.63 52.64 137.24 92.7 72.66 124.61"/><g id="_Group_13" data-name="&lt;Group&gt;"><path id="_Path_30" data-name="&lt;Path&gt;" class="cls-7" d="M117.93,81.55a2.46,2.46,0,1,0,3.94,3,2.44,2.44,0,0,0,.36-.7l-4.12-2.44A2.42,2.42,0,0,0,117.93,81.55Z"/><circle id="_Path_31" data-name="&lt;Path&gt;" class="cls-7" cx="76.52" cy="63.79" r="2.46" transform="translate(-20.44 86.7) rotate(-53.11)"/><circle id="_Path_32" data-name="&lt;Path&gt;" class="cls-7" cx="91.31" cy="74.9" r="2.46" transform="translate(-23.4 102.96) rotate(-53.11)"/><circle id="_Path_33" data-name="&lt;Path&gt;" class="cls-7" cx="106.1" cy="86" r="2.46" transform="translate(-26.37 119.23) rotate(-53.11)"/><circle id="_Path_34" data-name="&lt;Path&gt;" class="cls-7" cx="120.89" cy="97.1" r="2.46" transform="translate(-29.34 135.49) rotate(-53.11)"/><circle id="_Path_35" data-name="&lt;Path&gt;" class="cls-7" cx="76.8" cy="78.83" r="2.46" transform="translate(-32.35 92.93) rotate(-53.11)"/><circle id="_Path_36" data-name="&lt;Path&gt;" class="cls-7" cx="91.59" cy="89.93" r="2.46" transform="translate(-35.31 109.19) rotate(-53.11)"/><circle id="_Path_37" data-name="&lt;Path&gt;" class="cls-7" cx="106.38" cy="101.03" r="2.46" transform="translate(-38.28 125.46) rotate(-53.11)"/><circle id="_Path_38" data-name="&lt;Path&gt;" class="cls-7" cx="77.8" cy="92.9" r="2.46" transform="translate(-43.2 99.35) rotate(-53.11)"/><circle id="_Path_39" data-name="&lt;Path&gt;" class="cls-7" cx="92.59" cy="104" r="2.46" transform="translate(-46.17 115.62) rotate(-53.11)"/><circle id="_Path_40" data-name="&lt;Path&gt;" class="cls-7" cx="78.08" cy="107.93" r="2.46" transform="translate(-55.12 105.58) rotate(-53.11)"/><path id="_Path_41" data-name="&lt;Path&gt;" class="cls-7" d="M82.09,117.44a2.46,2.46,0,0,0-3,3.94l0,0,3.9-1.93A2.45,2.45,0,0,0,82.09,117.44Z"/></g></g><g id="_Group_14" data-name="&lt;Group&gt;"><polygon id="_Path_42" data-name="&lt;Path&gt;" class="cls-6" points="306.43 221.19 281 153.8 357.75 170.65 306.43 221.19"/><g id="_Group_15" data-name="&lt;Group&gt;"><path id="_Path_43" data-name="&lt;Path&gt;" class="cls-7" d="M335.92,166.11a2.46,2.46,0,1,0,4.78.79l-4.68-1A2.42,2.42,0,0,0,335.92,166.11Z"/><circle id="_Path_44" data-name="&lt;Path&gt;" class="cls-7" cx="291.03" cy="162.23" r="2.46" transform="translate(44.33 386.19) rotate(-71.37)"/><circle id="_Path_45" data-name="&lt;Path&gt;" class="cls-7" cx="308.56" cy="168.14" r="2.46" transform="matrix(0.32, -0.95, 0.95, 0.32, 50.66, 406.82)"/><circle id="_Path_46" data-name="&lt;Path&gt;" class="cls-7" cx="326.08" cy="174.05" r="2.46" transform="translate(56.99 427.44) rotate(-71.37)"/><circle id="_Path_47" data-name="&lt;Path&gt;" class="cls-7" cx="343.61" cy="179.95" r="2.46" transform="translate(63.32 448.07) rotate(-71.37)"/><circle id="_Path_48" data-name="&lt;Path&gt;" class="cls-7" cx="296.01" cy="176.42" r="2.46" transform="translate(34.27 400.56) rotate(-71.37)"/><circle id="_Path_49" data-name="&lt;Path&gt;" class="cls-7" cx="313.53" cy="182.33" r="2.46" transform="translate(40.6 421.19) rotate(-71.37)"/><circle id="_Path_50" data-name="&lt;Path&gt;" class="cls-7" cx="331.06" cy="188.23" r="2.46" transform="translate(46.93 441.81) rotate(-71.37)"/><circle id="_Path_51" data-name="&lt;Path&gt;" class="cls-7" cx="301.37" cy="189.47" r="2.46" transform="translate(25.55 414.52) rotate(-71.37)"/><circle id="_Path_52" data-name="&lt;Path&gt;" class="cls-7" cx="318.89" cy="195.38" r="2.46" transform="matrix(0.32, -0.95, 0.95, 0.32, 31.88, 435.15)"/><circle id="_Path_53" data-name="&lt;Path&gt;" class="cls-7" cx="306.34" cy="203.66" r="2.46" transform="translate(15.49 428.89) rotate(-71.37)"/><path id="_Path_54" data-name="&lt;Path&gt;" class="cls-7" d="M313.13,211.43a2.46,2.46,0,1,0-1.57,4.67h0l3.1-3.05A2.45,2.45,0,0,0,313.13,211.43Z"/></g></g><g id="_Group_16" data-name="&lt;Group&gt;"><polygon id="_Path_55" data-name="&lt;Path&gt;" class="cls-8" points="223.78 197.26 207.05 127.2 281.06 153.6 223.78 197.26"/><g id="_Group_17" data-name="&lt;Group&gt;"><polygon id="_Path_56" data-name="&lt;Path&gt;" class="cls-9" points="208.26 132.28 276.91 156.77 281.06 153.6 207.05 127.2 208.26 132.28"/><polygon id="_Path_57" data-name="&lt;Path&gt;" class="cls-9" points="210.5 141.68 211.72 146.77 265.07 165.79 269.22 162.63 210.5 141.68"/><polygon id="_Path_58" data-name="&lt;Path&gt;" class="cls-9" points="213.96 156.16 215.18 161.25 253.23 174.82 257.38 171.65 213.96 156.16"/><polygon id="_Path_59" data-name="&lt;Path&gt;" class="cls-9" points="217.42 170.65 218.63 175.73 241.39 183.84 245.54 180.68 217.42 170.65"/><polygon id="_Path_60" data-name="&lt;Path&gt;" class="cls-9" points="229.54 192.87 233.7 189.7 220.88 185.13 222.09 190.21 229.54 192.87"/></g></g></g></g></g></g></svg>