<svg xmlns="http://www.w3.org/2000/svg" viewBox="0 0 338.42 756.18"><defs><style>.cls-1{fill:none;stroke:#e3e3e3;stroke-miterlimit:10;stroke-width:2px;}.cls-2{fill:#b2d8d0;}.cls-3,.cls-7{fill:#fff;}.cls-3{opacity:0.5;}.cls-4{fill:#ffa08a;}.cls-5{fill:#ffddd9;}.cls-6{fill:#09263a;}.cls-8{fill:#ffe8a9;}.cls-9{opacity:0.8;}.cls-10{fill:#bdd68b;}</style></defs><title>Asset 1</title><g id="Layer_2" data-name="Layer 2"><g id="OBJECTS"><line class="cls-1" x1="337.6" y1="755.62" x2="201.6" y2="556.69"/><line class="cls-1" x1="334.03" y1="754.02" x2="255.63" y2="413.22"/><line class="cls-1" x1="334.03" y1="750.82" x2="137.23" y2="318.82"/><line class="cls-1" x1="334.03" y1="750.82" x2="247.63" y2="208.42"/><line class="cls-1" x1="334.03" y1="750.82" x2="98.83" y2="138.02"/><path class="cls-2" d="M4.8,101.79a75.37,75.37,0,1,1,108.87,38.52l8,13.73L104,151.8,92.08,165.11l-3-15.61A75.38,75.38,0,0,1,4.8,101.79Z"/><path class="cls-3" d="M94.63,32c1.22-.54,2.51-.93,3.74-1.45,2.71-1.14,2.7-1.15,2.19-4.14a16.38,16.38,0,0,1-.58-4.64c.06-.51.08-1.12.65-1.33s.92.37,1.19.78c1.08,1.64,2.65,2.82,3.93,4.25,1,1.08,1.81,1,2.93.43s2.32-1,3.51-1.45a1.22,1.22,0,0,1,1.26.27c.46.42.06.83-.16,1.18-.47.76-1,1.47-1.48,2.22-.75,1.19-1,2.2.53,3.13,1.71,1,3.28,2.3,4.91,3.45.42.3,1.13.66.94,1.11-.27.62-.93.13-1.37,0a24.55,24.55,0,0,0-5.64-1.21,2.44,2.44,0,0,0-3,1.68A46.52,46.52,0,0,1,105,42.84c-.32.54-.38,1.43-1.32,1.21s-.8-1-.78-1.66a28,28,0,0,0-.49-6.22c-.18-.92-.46-1.38-1.56-1.44A27.58,27.58,0,0,1,95.1,34c-.43-.11-.9-.08-1.27-.52C93.43,32.67,94,32.24,94.63,32Zm8.81-2.05c-.51.42-.53,2.76,0,3.26s4.26.29,4.76-.13a2.7,2.7,0,0,0,.31-3.37C107.18,28.25,105.4,28.33,103.44,29.92Zm1.7,9.63c.74-1.43,1.46-2.87,2.13-4.34.21-.45-.17-.68-.58-.65-.8.06-1.6.17-2.4.27a.53.53,0,0,0-.51.6c.17,1.38.37,2.75.56,4.16C104.6,40,104.93,40,105.14,39.55ZM102.68,24.2c-.2-.19-.44-.48-.73-.31s-.18.54-.11.82c.15.65.35,1.28.49,1.93.31,1.4,1.56,1.75,2.71.78.73-.62-.11-.84-.14-1.09C104.06,25.53,103.37,24.86,102.68,24.2Zm-1.33,9.17c.48-.33.29-.78.21-1.2s-.26-1-.82-.82c-1.14.29-2.26.68-3.38,1.07a.39.39,0,0,0-.19.68A12.76,12.76,0,0,0,101.34,33.37Zm8.92-4.76c.36-.53,1.08-1.28.63-1.69s-1.31.27-1.93.57-.41.69,0,1S109.83,29.25,110.26,28.61Zm1.91,4.63c.45-.25,0-.63-.28-.8-.5-.31-.91-1.08-1.63-.56a.82.82,0,0,0-.15,1.18C110.79,33.21,111.52,33.6,112.17,33.24Z"/><path class="cls-3" d="M119.88,70.76c.89-.88,1.87-1.65,2.78-2.51,2-1.9,2-1.91.52-4.33a15.28,15.28,0,0,1-2.05-3.85c-.12-.47-.31-1,.12-1.37s.92,0,1.29.28a36.4,36.4,0,0,0,4.85,2.39,2,2,0,0,0,2.69-.6c.81-.86,1.69-1.65,2.57-2.43a1.14,1.14,0,0,1,1.19-.19c.54.21.33.71.26,1.08-.15.82-.39,1.62-.55,2.43-.26,1.29-.13,2.25,1.51,2.54,1.83.32,3.62.9,5.43,1.37.47.12,1.2.2,1.18.65,0,.63-.76.42-1.21.42a22.91,22.91,0,0,0-5.32.83,2.28,2.28,0,0,0-2,2.45,43.41,43.41,0,0,1-.59,6.84c-.1.58.15,1.37-.74,1.49s-1-.64-1.24-1.18A26.1,26.1,0,0,0,128,71.82c-.46-.74-.87-1-1.84-.73A25.73,25.73,0,0,1,121,72.35c-.41,0-.81.23-1.28,0C119.06,71.76,119.43,71.19,119.88,70.76Zm7-4.73c-.31.54.46,2.58,1.07,2.85s3.81-1.17,4.1-1.7a2.52,2.52,0,0,0-.86-3C129.57,63.32,128,64,126.86,66Zm4.7,7.82c.16-1.49.31-3,.41-4.49,0-.47-.37-.54-.72-.37-.68.32-1.34.69-2,1a.49.49,0,0,0-.24.69c.61,1.14,1.24,2.27,1.88,3.44C131.24,74.41,131.52,74.27,131.56,73.84Zm-7.28-12.55c-.24-.1-.54-.28-.74,0s0,.53.18.75c.35.51.73,1,1.07,1.52.74,1.11,1.95,1,2.62-.22.43-.78-.38-.69-.48-.9Zm1.9,8.43c.3-.45,0-.77-.22-1.12s-.55-.75-1-.44c-.9.64-1.75,1.35-2.59,2.06a.36.36,0,0,0,.06.65A11.91,11.91,0,0,0,126.19,69.73Zm6.18-7.12c.13-.58.51-1.48,0-1.68s-1,.67-1.49,1.15-.12.74.3.9S132.2,63.31,132.37,62.6Zm3.21,3.4c.31-.37-.21-.55-.52-.61-.54-.1-1.15-.64-1.6.06a.76.76,0,0,0,.26,1.08C134.36,66.43,135.13,66.53,135.58,66Z"/><path class="cls-3" d="M17.07,67.59c.58-1.1,1.29-2.14,1.88-3.24,1.31-2.41,1.3-2.42-.82-4.29A15.28,15.28,0,0,1,15,57c-.26-.41-.6-.86-.3-1.34s.89-.26,1.32-.12a36.4,36.4,0,0,0,5.35.81c1.34.22,1.89-.35,2.38-1.39s1.11-2.08,1.71-3.1a1.14,1.14,0,0,1,1.07-.54c.58,0,.53.57.58,1,.1.82.12,1.66.21,2.48.14,1.3.56,2.19,2.21,2,1.85-.25,3.73-.24,5.59-.34.48,0,1.21-.17,1.33.26.16.61-.6.64-1,.77a22.91,22.91,0,0,0-4.82,2.4,2.28,2.28,0,0,0-1.19,3,43.41,43.41,0,0,1,1.51,6.7c.08.58.56,1.26-.26,1.65s-1.19-.29-1.54-.75a26.1,26.1,0,0,0-4-4.24,1.34,1.34,0,0,0-2-.14,25.73,25.73,0,0,1-4.61,2.79c-.38.17-.7.47-1.23.36C16.6,68.8,16.78,68.14,17.07,67.59ZM22.3,61c-.13.6,1.22,2.32,1.89,2.39s3.27-2.27,3.39-2.87a2.52,2.52,0,0,0-1.74-2.63C24.05,57.56,22.8,58.66,22.3,61Zm6.85,6c-.3-1.47-.61-2.94-1-4.4-.11-.45-.52-.4-.8-.13-.55.51-1.07,1.06-1.59,1.6a.49.49,0,0,0,0,.74c.92.91,1.87,1.79,2.84,2.71C29,67.63,29.23,67.41,29.15,67ZM18.4,57.24c-.26,0-.6-.1-.71.2s.19.5.4.66c.49.38,1,.73,1.48,1.12,1,.84,2.16.37,2.43-1,.17-.87-.57-.55-.73-.71Zm4.37,7.46c.16-.52-.24-.74-.55-1s-.75-.55-1.08-.12c-.66.88-1.26,1.81-1.84,2.75-.15.23-.13.53.25.6A11.91,11.91,0,0,0,22.78,64.69ZM26.5,56c0-.59,0-1.57-.52-1.6s-.79,1-1.07,1.54.11.74.56.76S26.56,56.75,26.5,56Zm4.09,2.26c.18-.45-.37-.46-.68-.42-.54.06-1.29-.26-1.51.54a.76.76,0,0,0,.58.95C29.56,59.08,30.33,58.94,30.59,58.29Z"/><path class="cls-3" d="M100.58,119.52c.62-1.18,1.38-2.3,2-3.47,1.41-2.58,1.39-2.59-.88-4.59a16.38,16.38,0,0,1-3.34-3.26c-.28-.44-.64-.92-.32-1.44s.95-.28,1.41-.13c1.87.6,3.83.55,5.73.87,1.43.24,2-.37,2.56-1.49s1.19-2.23,1.83-3.32a1.22,1.22,0,0,1,1.15-.58c.62,0,.57.61.62,1,.11.88.13,1.78.23,2.66.15,1.4.6,2.34,2.37,2.11,2-.26,4-.25,6-.37.52,0,1.29-.19,1.42.28.18.65-.64.68-1.1.82a24.55,24.55,0,0,0-5.16,2.58,2.44,2.44,0,0,0-1.28,3.17,46.52,46.52,0,0,1,1.62,7.18c.08.62.6,1.35-.27,1.77s-1.27-.31-1.65-.81a28,28,0,0,0-4.27-4.55,1.43,1.43,0,0,0-2.11-.15,27.58,27.58,0,0,1-4.94,3c-.4.18-.75.5-1.32.38C100.07,120.81,100.27,120.1,100.58,119.52Zm5.6-7.1c-.14.65,1.31,2.49,2,2.56s3.51-2.43,3.64-3.07a2.7,2.7,0,0,0-1.86-2.82C108.05,108.77,106.72,109.94,106.18,112.41Zm7.34,6.46c-.32-1.58-.65-3.16-1-4.72-.12-.49-.56-.43-.86-.14-.59.55-1.14,1.14-1.71,1.72a.53.53,0,0,0,0,.79c1,1,2,1.92,3,2.9C113.37,119.56,113.61,119.32,113.52,118.87ZM102,108.42c-.28,0-.64-.1-.76.21s.2.53.43.71c.52.41,1.07.79,1.59,1.2,1.12.9,2.31.39,2.6-1.08.18-.94-.61-.59-.79-.76Zm4.69,8c.17-.55-.26-.79-.59-1.07s-.8-.59-1.15-.13c-.71.94-1.35,1.94-2,2.94-.16.25-.14.57.27.65A12.76,12.76,0,0,0,106.69,116.41Zm4-9.28c-.05-.63,0-1.68-.56-1.71s-.85,1-1.15,1.65.11.8.6.82S110.75,107.9,110.68,107.13Zm4.38,2.42c.2-.48-.4-.49-.72-.45-.58.07-1.38-.28-1.62.58a.82.82,0,0,0,.62,1C114,110.39,114.78,110.24,115.07,109.55Z"/><path class="cls-3" d="M57.94,131.33c.59-1.12,1.3-2.17,1.91-3.28,1.33-2.44,1.32-2.45-.83-4.34a15.48,15.48,0,0,1-3.16-3.08c-.26-.41-.6-.87-.3-1.36s.9-.27,1.34-.12a36.88,36.88,0,0,0,5.42.82c1.36.23,1.91-.35,2.42-1.41s1.13-2.11,1.73-3.14a1.15,1.15,0,0,1,1.09-.55c.59,0,.54.58.58,1,.1.83.12,1.68.21,2.51.15,1.32.57,2.22,2.24,2,1.87-.25,3.78-.24,5.67-.35.49,0,1.22-.18,1.34.27.17.61-.61.64-1,.78a23.21,23.21,0,0,0-4.88,2.44,2.31,2.31,0,0,0-1.21,3A44,44,0,0,1,72,133.24c.08.59.57,1.28-.26,1.67s-1.2-.3-1.56-.76a26.44,26.44,0,0,0-4-4.3,1.35,1.35,0,0,0-2-.14,26.07,26.07,0,0,1-4.67,2.83c-.38.17-.71.47-1.24.36C57.46,132.55,57.65,131.88,57.94,131.33Zm5.29-6.72c-.13.61,1.24,2.35,1.91,2.42s3.32-2.3,3.44-2.91a2.55,2.55,0,0,0-1.76-2.67C65,121.17,63.74,122.28,63.23,124.61Zm6.94,6.1c-.3-1.49-.62-3-1-4.46-.11-.46-.52-.4-.81-.13-.56.52-1.08,1.07-1.61,1.62a.5.5,0,0,0,0,.74c.94.92,1.9,1.81,2.88,2.74C70,131.36,70.26,131.14,70.17,130.71Zm-10.88-9.88c-.26,0-.61-.1-.72.2s.19.5.4.67c.49.39,1,.74,1.5,1.14,1.06.85,2.19.37,2.46-1,.17-.88-.58-.55-.74-.72Zm4.43,7.56c.16-.52-.24-.74-.56-1s-.76-.56-1.09-.12c-.67.89-1.27,1.84-1.87,2.78-.15.23-.14.54.26.61A12.06,12.06,0,0,0,63.72,128.39Zm3.78-8.78c0-.6,0-1.59-.53-1.62s-.8,1-1.09,1.56.11.75.57.77S67.55,120.35,67.49,119.62Zm4.14,2.29c.19-.45-.37-.46-.68-.43-.55.07-1.31-.26-1.53.55a.77.77,0,0,0,.58,1C70.59,122.7,71.37,122.56,71.64,121.91Z"/><path class="cls-3" d="M67,70.45c1.34,0,2.67.22,4,.28,2.93.12,2.94.11,3.74-2.81a16.38,16.38,0,0,1,1.45-4.44c.27-.44.55-1,1.15-.92s.67.73.74,1.21c.28,1.94,1.2,3.68,1.75,5.52.42,1.39,1.23,1.65,2.46,1.64s2.53.09,3.79.18a1.22,1.22,0,0,1,1,.78c.24.58-.3.78-.64,1-.74.49-1.54.9-2.29,1.38-1.19.75-1.84,1.57-.85,3.05,1.11,1.66,2,3.47,3,5.22.25.45.74,1.08.37,1.4s-.9-.28-1.22-.62a24.55,24.55,0,0,0-4.59-3.5,2.44,2.44,0,0,0-3.41.25,46.52,46.52,0,0,1-5.73,4.62c-.52.35-.95,1.14-1.71.53s-.28-1.28,0-1.83a28,28,0,0,0,2.2-5.83c.23-.91.17-1.45-.8-2a27.58,27.58,0,0,1-4.86-3.11c-.34-.28-.78-.46-.92-1C65.66,70.57,66.38,70.44,67,70.45Zm8.85,1.89c-.64.16-1.66,2.27-1.41,2.95s3.73,2.08,4.36,1.91a2.7,2.7,0,0,0,1.71-2.92C80,72.43,78.34,71.75,75.89,72.35Zm-2.56,9.44c1.28-1,2.54-2,3.78-3,.38-.32.14-.69-.25-.83-.75-.29-1.53-.53-2.29-.78a.53.53,0,0,0-.72.33c-.44,1.32-.84,2.65-1.26,4C72.65,82,73,82.07,73.33,81.78Zm4.3-14.94c-.1-.26-.19-.62-.53-.59s-.39.41-.45.7c-.14.65-.23,1.31-.38,2-.31,1.4.67,2.25,2.12,1.86.92-.25.26-.81.34-1C78.32,68.64,78,67.74,77.63,66.84Zm-5.11,7.73c.57-.09.59-.58.7-1s.17-1-.4-1.09c-1.16-.22-2.34-.35-3.51-.48-.29,0-.57.12-.46.53A12.76,12.76,0,0,0,72.52,74.57Zm10.09-.51c.55-.32,1.53-.7,1.29-1.26s-1.3-.31-2-.3-.66.45-.47.9S81.95,74.46,82.61,74.07Zm-.24,5c.52,0,.27-.57.09-.85-.32-.49-.36-1.37-1.23-1.2a.82.82,0,0,0-.64,1C81.13,78.45,81.63,79.12,82.37,79.07Z"/><path class="cls-3" d="M48.87,21.56c1.34,0,2.67.22,4,.28,2.93.12,2.94.11,3.74-2.81a16.38,16.38,0,0,1,1.45-4.44c.27-.44.55-1,1.15-.92s.67.73.74,1.21c.28,1.94,1.2,3.68,1.75,5.52.42,1.39,1.23,1.65,2.46,1.64s2.53.09,3.79.18A1.22,1.22,0,0,1,69,23c.24.58-.3.78-.64,1-.74.49-1.54.9-2.29,1.38-1.19.75-1.84,1.57-.85,3.05,1.11,1.66,2,3.47,3,5.22.25.45.74,1.08.37,1.4s-.9-.28-1.22-.62a24.55,24.55,0,0,0-4.59-3.5,2.44,2.44,0,0,0-3.41.25,46.52,46.52,0,0,1-5.73,4.62c-.52.35-.95,1.14-1.71.53s-.28-1.28,0-1.83a28,28,0,0,0,2.2-5.83c.23-.91.17-1.45-.8-2a27.58,27.58,0,0,1-4.86-3.11c-.34-.28-.78-.46-.92-1C47.49,21.68,48.21,21.54,48.87,21.56Zm8.85,1.89c-.64.16-1.66,2.27-1.41,2.95s3.73,2.08,4.36,1.91a2.7,2.7,0,0,0,1.71-2.92C61.82,23.53,60.17,22.85,57.72,23.45Zm-2.56,9.44c1.28-1,2.54-2,3.78-3,.38-.32.14-.69-.25-.83-.75-.29-1.53-.53-2.29-.78a.53.53,0,0,0-.72.33c-.44,1.32-.84,2.65-1.26,4C54.48,33.06,54.79,33.17,55.16,32.89Zm4.3-14.94c-.1-.26-.19-.62-.53-.59s-.39.41-.45.7c-.14.65-.23,1.31-.38,2-.31,1.4.67,2.25,2.12,1.86.92-.25.26-.81.34-1C60.15,19.75,59.81,18.84,59.46,17.95Zm-5.11,7.73c.57-.09.59-.58.7-1s.17-1-.4-1.09c-1.16-.22-2.34-.35-3.51-.48-.29,0-.57.12-.46.53A12.76,12.76,0,0,0,54.35,25.68Zm10.09-.51c.55-.32,1.53-.7,1.29-1.26s-1.3-.31-2-.3-.66.45-.47.9S63.78,25.57,64.44,25.17Zm-.24,5c.52,0,.27-.57.09-.85-.32-.49-.36-1.37-1.23-1.2a.82.82,0,0,0-.64,1C63,29.55,63.46,30.22,64.2,30.17Z"/><path class="cls-3" d="M20.82,111.47c.72-1.12,1.58-2.16,2.32-3.28,1.63-2.44,1.62-2.46-.46-4.65a16.38,16.38,0,0,1-3-3.55c-.24-.46-.55-1-.19-1.46s1-.2,1.42,0c1.81.77,3.76.88,5.63,1.37,1.41.37,2-.19,2.68-1.26s1.38-2.12,2.12-3.15a1.22,1.22,0,0,1,1.2-.47c.61.1.51.66.52,1.07,0,.89,0,1.78,0,2.67,0,1.41.39,2.39,2.17,2.31,2-.09,4,.1,6,.16.52,0,1.31-.07,1.39.41.12.66-.7.62-1.17.72A24.55,24.55,0,0,0,36,104.48a2.44,2.44,0,0,0-1.55,3,46.52,46.52,0,0,1,1,7.3c0,.63.48,1.4-.43,1.74s-1.24-.43-1.57-.95a28,28,0,0,0-3.85-4.91,1.43,1.43,0,0,0-2.09-.34,27.58,27.58,0,0,1-5.18,2.54c-.42.14-.79.43-1.35.26C20.21,112.72,20.46,112,20.82,111.47ZM27,104.9c-.2.63,1.09,2.6,1.79,2.73s3.71-2.11,3.9-2.74a2.7,2.7,0,0,0-1.61-3C29.22,101.43,27.79,102.49,27,104.9ZM33.77,112c-.18-1.6-.37-3.2-.62-4.79-.08-.49-.52-.47-.84-.22-.64.49-1.24,1-1.85,1.56a.53.53,0,0,0-.09.78c.9,1.06,1.83,2.09,2.77,3.16C33.57,112.65,33.82,112.44,33.77,112ZM23.23,100.55c-.27,0-.63-.16-.78.15s.15.55.36.75c.48.45,1,.88,1.48,1.34,1,1,2.27.6,2.69-.84.26-.92-.56-.64-.72-.83Zm4,8.38c.21-.54-.19-.81-.49-1.12s-.75-.66-1.14-.23c-.79.88-1.51,1.82-2.23,2.76a.39.39,0,0,0,.21.67A12.76,12.76,0,0,0,27.19,108.93ZM32,100c0-.63.19-1.67-.41-1.76s-.94.95-1.29,1.55,0,.8.53.87S32,100.81,32,100Zm4.15,2.8c.24-.46-.35-.52-.68-.51-.59,0-1.35-.4-1.66.43a.82.82,0,0,0,.53,1.07C35,103.58,35.8,103.5,36.14,102.84Z"/><path class="cls-4" d="M44.82,264.35a75.37,75.37,0,1,1,105.06,47.94l6.76,14.38-17.43-3.79-13,12.21-1.59-15.81A75.38,75.38,0,0,1,44.82,264.35Z"/><path class="cls-5" d="M173.41,213.66a9.37,9.37,0,0,0,.31,5.19c.36,1.18.58,2.39,1,3.56a16.78,16.78,0,0,0,.91,2.1,1.08,1.08,0,0,0,2,.06,5,5,0,0,0,.68-2.62,18.11,18.11,0,0,0-1.83-7.81,3.24,3.24,0,0,0-1-1.31C174.3,212.4,173.66,212.71,173.41,213.66Z"/><path class="cls-5" d="M177.16,257.86a9.37,9.37,0,0,0,.31,5.19c.36,1.18.58,2.39,1,3.56a16.78,16.78,0,0,0,.91,2.1,1.08,1.08,0,0,0,2,.06,5,5,0,0,0,.68-2.62,18.11,18.11,0,0,0-1.83-7.81,3.24,3.24,0,0,0-1-1.31C178,256.6,177.41,256.91,177.16,257.86Z"/><path class="cls-5" d="M167.19,238.24A9.37,9.37,0,0,0,170.8,242c1,.66,2,1.44,3.08,2a16.78,16.78,0,0,0,2.05,1,1.08,1.08,0,0,0,1.53-1.22,5,5,0,0,0-1.18-2.43,18.11,18.11,0,0,0-6.46-4.75,3.24,3.24,0,0,0-1.59-.37C167,236.71,166.77,237.37,167.19,238.24Z"/><path class="cls-5" d="M152,211.71a9.37,9.37,0,0,0,3.13,4.16c1,.78,1.81,1.67,2.82,2.4a16.78,16.78,0,0,0,1.92,1.25,1.08,1.08,0,0,0,1.66-1,5,5,0,0,0-.88-2.56,18.11,18.11,0,0,0-5.84-5.49,3.24,3.24,0,0,0-1.53-.56C152.09,210.17,151.73,210.79,152,211.71Z"/><path class="cls-5" d="M144.6,230.37a9.37,9.37,0,0,0,2.16,4.73c.76,1,1.41,2,2.23,2.95a16.78,16.78,0,0,0,1.6,1.63,1.08,1.08,0,0,0,1.85-.65,5,5,0,0,0-.31-2.69,18.11,18.11,0,0,0-4.52-6.62,3.24,3.24,0,0,0-1.37-.87C145,228.88,144.5,229.4,144.6,230.37Z"/><path class="cls-5" d="M85.78,219.67a9.37,9.37,0,0,0,2.16,4.73c.76,1,1.41,2,2.23,2.95a16.78,16.78,0,0,0,1.6,1.63,1.08,1.08,0,0,0,1.85-.65,5,5,0,0,0-.31-2.69A18.11,18.11,0,0,0,88.8,219a3.24,3.24,0,0,0-1.37-.87C86.16,218.18,85.68,218.7,85.78,219.67Z"/><path class="cls-5" d="M159.1,250.9a9.37,9.37,0,0,0,2.16,4.73c.76,1,1.41,2,2.23,2.95a16.78,16.78,0,0,0,1.6,1.63,1.08,1.08,0,0,0,1.85-.65,5,5,0,0,0-.31-2.69,18.11,18.11,0,0,0-4.52-6.62,3.24,3.24,0,0,0-1.37-.87C159.48,249.41,159,249.93,159.1,250.9Z"/><path class="cls-5" d="M144.47,261.76a9.37,9.37,0,0,0,2.78,4.4c.89.86,1.67,1.81,2.61,2.62a16.78,16.78,0,0,0,1.81,1.4,1.08,1.08,0,0,0,1.74-.89,5,5,0,0,0-.67-2.62,18.11,18.11,0,0,0-5.37-5.95,3.24,3.24,0,0,0-1.48-.68C144.64,260.22,144.23,260.81,144.47,261.76Z"/><path class="cls-5" d="M80,238.87a9.37,9.37,0,0,0,2.78,4.4c.89.86,1.67,1.81,2.61,2.62a16.78,16.78,0,0,0,1.81,1.4,1.08,1.08,0,0,0,1.74-.89,5,5,0,0,0-.67-2.62,18.11,18.11,0,0,0-5.37-5.95,3.24,3.24,0,0,0-1.48-.68C80.15,237.33,79.74,237.92,80,238.87Z"/><path class="cls-5" d="M139.41,243a9.37,9.37,0,0,0-1.27,5c0,1.23-.16,2.46-.1,3.7a16.78,16.78,0,0,0,.23,2.28,1.08,1.08,0,0,0,1.85.65,5,5,0,0,0,1.44-2.29,18.11,18.11,0,0,0,.61-8,3.24,3.24,0,0,0-.53-1.54C140.64,242.08,139.93,242.19,139.41,243Z"/><path class="cls-5" d="M116.67,267.42a9.37,9.37,0,0,0-1.27,5c0,1.23-.16,2.46-.1,3.7a16.78,16.78,0,0,0,.23,2.28,1.08,1.08,0,0,0,1.85.65,5,5,0,0,0,1.44-2.29,18.11,18.11,0,0,0,.61-8,3.24,3.24,0,0,0-.53-1.54C117.9,266.48,117.19,266.59,116.67,267.42Z"/><path class="cls-5" d="M151.37,280.43a9.37,9.37,0,0,0-1.27,5c0,1.23-.16,2.46-.1,3.7a16.78,16.78,0,0,0,.23,2.28,1.08,1.08,0,0,0,1.85.65,5,5,0,0,0,1.44-2.29,18.11,18.11,0,0,0,.61-8,3.24,3.24,0,0,0-.53-1.54C152.6,279.5,151.89,279.61,151.37,280.43Z"/><path class="cls-5" d="M73,218.06a9.37,9.37,0,0,0-1.27,5c0,1.23-.16,2.46-.1,3.7a16.78,16.78,0,0,0,.23,2.28,1.08,1.08,0,0,0,1.85.65,5,5,0,0,0,1.44-2.29,18.11,18.11,0,0,0,.61-8,3.24,3.24,0,0,0-.53-1.54C74.21,217.13,73.5,217.24,73,218.06Z"/><path class="cls-5" d="M63.05,204.8a9.37,9.37,0,0,0-2.72,4.43c-.38,1.17-.89,2.3-1.2,3.5a16.78,16.78,0,0,0-.46,2.24,1.08,1.08,0,0,0,1.57,1.17,5,5,0,0,0,2.06-1.76,18.11,18.11,0,0,0,3-7.44,3.24,3.24,0,0,0,0-1.63C64.5,204.27,63.8,204.16,63.05,204.8Z"/><path class="cls-5" d="M91.84,183.43a9.37,9.37,0,0,0-4.26,3c-.81.93-1.73,1.75-2.49,2.73A16.78,16.78,0,0,0,83.78,191a1.08,1.08,0,0,0,1,1.7,5,5,0,0,0,2.59-.79A18.11,18.11,0,0,0,93,186.27a3.24,3.24,0,0,0,.61-1.51C93.38,183.52,92.78,183.14,91.84,183.43Z"/><path class="cls-5" d="M119,241.94a9.37,9.37,0,0,0,.89,5.12c.49,1.13.85,2.31,1.41,3.42a16.78,16.78,0,0,0,1.14,2,1.08,1.08,0,0,0,1.95-.16,5,5,0,0,0,.38-2.68,18.11,18.11,0,0,0-2.69-7.55,3.24,3.24,0,0,0-1.11-1.19C119.74,240.59,119.14,241,119,241.94Z"/><path class="cls-5" d="M102.83,281.57a9.37,9.37,0,0,0,.89,5.12c.49,1.13.85,2.31,1.41,3.42a16.78,16.78,0,0,0,1.14,2,1.08,1.08,0,0,0,1.95-.16,5,5,0,0,0,.38-2.68,18.11,18.11,0,0,0-2.69-7.55,3.24,3.24,0,0,0-1.11-1.19C103.58,280.21,103,280.6,102.83,281.57Z"/><path class="cls-5" d="M123.36,226a9.37,9.37,0,0,0,2.16,4.73c.76,1,1.41,2,2.23,2.95a16.78,16.78,0,0,0,1.6,1.63,1.08,1.08,0,0,0,1.85-.65,5,5,0,0,0-.31-2.69,18.11,18.11,0,0,0-4.52-6.62,3.24,3.24,0,0,0-1.37-.87C123.73,224.5,123.25,225,123.36,226Z"/><path class="cls-5" d="M98.23,298.43a9.37,9.37,0,0,0,2.16,4.73c.76,1,1.41,2,2.23,2.95a16.78,16.78,0,0,0,1.6,1.63,1.08,1.08,0,0,0,1.85-.65,5,5,0,0,0-.31-2.69,18.11,18.11,0,0,0-4.52-6.62,3.24,3.24,0,0,0-1.37-.87C98.61,296.94,98.13,297.46,98.23,298.43Z"/><path class="cls-5" d="M92.26,262.18a9.37,9.37,0,0,0,2.16,4.73c.76,1,1.41,2,2.23,2.95a16.78,16.78,0,0,0,1.6,1.63,1.08,1.08,0,0,0,1.85-.65,5,5,0,0,0-.31-2.69,18.11,18.11,0,0,0-4.52-6.62,3.24,3.24,0,0,0-1.37-.87C92.63,260.69,92.15,261.21,92.26,262.18Z"/><path class="cls-5" d="M129.79,281.3a9.37,9.37,0,0,0,2.16,4.73c.76,1,1.41,2,2.23,2.95a16.78,16.78,0,0,0,1.6,1.63,1.08,1.08,0,0,0,1.85-.65,5,5,0,0,0-.31-2.69,18.11,18.11,0,0,0-4.52-6.62,3.24,3.24,0,0,0-1.37-.87C130.17,279.8,129.68,280.33,129.79,281.3Z"/><path class="cls-5" d="M133.33,204.06a9.37,9.37,0,0,0-.42,5.18c.19,1.22.24,2.45.51,3.66a16.78,16.78,0,0,0,.6,2.21,1.08,1.08,0,0,0,1.93.34,5,5,0,0,0,1-2.5,18.11,18.11,0,0,0-.72-8,3.24,3.24,0,0,0-.77-1.43C134.39,202.94,133.71,203.16,133.33,204.06Z"/><path class="cls-5" d="M77.34,199.45a9.37,9.37,0,0,0-.42,5.18c.19,1.22.24,2.45.51,3.66a16.78,16.78,0,0,0,.6,2.21,1.08,1.08,0,0,0,1.93.34,5,5,0,0,0,1-2.5,18.11,18.11,0,0,0-.72-8,3.24,3.24,0,0,0-.77-1.43C78.4,198.33,77.72,198.55,77.34,199.45Z"/><path class="cls-5" d="M133,182a9.37,9.37,0,0,0-.42,5.18c.19,1.22.24,2.45.51,3.66a16.78,16.78,0,0,0,.6,2.21,1.08,1.08,0,0,0,1.93.34,5,5,0,0,0,1-2.5,18.11,18.11,0,0,0-.72-8,3.24,3.24,0,0,0-.77-1.43C134,180.88,133.34,181.1,133,182Z"/><path class="cls-5" d="M112.07,180.41a9.37,9.37,0,0,0,2.73,4.42c.88.87,1.65,1.83,2.59,2.64a16.78,16.78,0,0,0,1.8,1.42,1.08,1.08,0,0,0,1.75-.87,5,5,0,0,0-.64-2.63,18.11,18.11,0,0,0-5.31-6,3.24,3.24,0,0,0-1.47-.7C112.26,178.88,111.85,179.46,112.07,180.41Z"/><path class="cls-5" d="M149.5,190.29a9.37,9.37,0,0,0,2.81,4.38c.89.85,1.68,1.8,2.63,2.6a16.78,16.78,0,0,0,1.82,1.39,1.08,1.08,0,0,0,1.74-.9,5,5,0,0,0-.69-2.62,18.11,18.11,0,0,0-5.41-5.92,3.24,3.24,0,0,0-1.48-.67C149.66,188.75,149.25,189.34,149.5,190.29Z"/><path class="cls-5" d="M72.19,248.84A9.37,9.37,0,0,0,72.5,254c.36,1.18.58,2.39,1,3.56a16.78,16.78,0,0,0,.91,2.1,1.08,1.08,0,0,0,2,.06,5,5,0,0,0,.68-2.62,18.11,18.11,0,0,0-1.83-7.81,3.24,3.24,0,0,0-1-1.31C73.08,247.58,72.44,247.9,72.19,248.84Z"/><path class="cls-5" d="M76,272.71a9.37,9.37,0,0,0,3.61,3.75c1,.66,2,1.44,3.08,2a16.78,16.78,0,0,0,2.05,1,1.08,1.08,0,0,0,1.53-1.22,5,5,0,0,0-1.18-2.43,18.11,18.11,0,0,0-6.46-4.75,3.24,3.24,0,0,0-1.59-.37C75.87,271.18,75.59,271.84,76,272.71Z"/><path class="cls-5" d="M53.75,250a9.37,9.37,0,0,0,3.13,4.16c1,.78,1.81,1.67,2.82,2.4a16.78,16.78,0,0,0,1.92,1.25,1.08,1.08,0,0,0,1.66-1,5,5,0,0,0-.88-2.56,18.11,18.11,0,0,0-5.84-5.49,3.24,3.24,0,0,0-1.53-.56C53.79,248.44,53.43,249.06,53.75,250Z"/><path class="cls-5" d="M52.39,265.82a9.37,9.37,0,0,0,2.16,4.73c.76,1,1.41,2,2.23,2.95a16.78,16.78,0,0,0,1.6,1.63,1.08,1.08,0,0,0,1.85-.65,5,5,0,0,0-.31-2.69,18.11,18.11,0,0,0-4.52-6.62A3.24,3.24,0,0,0,54,264.3C52.77,264.32,52.29,264.85,52.39,265.82Z"/><path class="cls-5" d="M70.15,282.12a9.37,9.37,0,0,0-1.27,5c0,1.23-.16,2.46-.1,3.7a16.78,16.78,0,0,0,.23,2.28,1.08,1.08,0,0,0,1.85.65,5,5,0,0,0,1.44-2.29,18.11,18.11,0,0,0,.61-8,3.24,3.24,0,0,0-.53-1.54C71.38,281.18,70.67,281.29,70.15,282.12Z"/><path class="cls-5" d="M139.65,298.44a9.37,9.37,0,0,0-.42,5.18c.19,1.22.24,2.45.51,3.66a16.78,16.78,0,0,0,.6,2.21,1.08,1.08,0,0,0,1.93.34,5,5,0,0,0,1-2.5,18.11,18.11,0,0,0-.72-8,3.24,3.24,0,0,0-.77-1.43C140.71,297.32,140,297.54,139.65,298.44Z"/><path class="cls-5" d="M54.17,229.65A9.37,9.37,0,0,0,57,234c.89.85,1.68,1.8,2.63,2.6A16.78,16.78,0,0,0,61.42,238a1.08,1.08,0,0,0,1.74-.9,5,5,0,0,0-.69-2.62,18.11,18.11,0,0,0-5.41-5.92,3.24,3.24,0,0,0-1.48-.67C54.33,228.11,53.93,228.7,54.17,229.65Z"/><path class="cls-5" d="M162.05,276.83a9.37,9.37,0,0,0,2.81,4.38c.89.85,1.68,1.8,2.63,2.6a16.78,16.78,0,0,0,1.82,1.39,1.08,1.08,0,0,0,1.74-.9,5,5,0,0,0-.69-2.62,18.11,18.11,0,0,0-5.41-5.92,3.24,3.24,0,0,0-1.48-.67C162.21,275.3,161.81,275.88,162.05,276.83Z"/><path class="cls-5" d="M118.53,202.14a9.37,9.37,0,0,0-1.78,4.89c-.14,1.23-.41,2.43-.48,3.67a16.78,16.78,0,0,0,0,2.29,1.08,1.08,0,0,0,1.77.83,5,5,0,0,0,1.67-2.13,18.11,18.11,0,0,0,1.42-7.89,3.24,3.24,0,0,0-.37-1.59C119.85,201.34,119.14,201.37,118.53,202.14Z"/><path class="cls-5" d="M105.83,190.75a9.37,9.37,0,0,0-1.78,4.89c-.14,1.23-.41,2.43-.48,3.67a16.78,16.78,0,0,0,0,2.29,1.08,1.08,0,0,0,1.77.83A5,5,0,0,0,107,200.3a18.11,18.11,0,0,0,1.42-7.89,3.24,3.24,0,0,0-.37-1.59C107.15,190,106.43,190,105.83,190.75Z"/><path class="cls-5" d="M104.83,225a9.37,9.37,0,0,0,.44,5.18c.39,1.17.65,2.38,1.11,3.53a16.78,16.78,0,0,0,1,2.08,1.08,1.08,0,0,0,2,0,5,5,0,0,0,.61-2.64,18.11,18.11,0,0,0-2-7.76,3.24,3.24,0,0,0-1-1.29C105.69,223.68,105.06,224,104.83,225Z"/><path class="cls-5" d="M82.94,289.47a9.37,9.37,0,0,0,.44,5.18c.39,1.17.65,2.38,1.11,3.53a16.78,16.78,0,0,0,1,2.08,1.08,1.08,0,0,0,2,0,5,5,0,0,0,.61-2.64,18.11,18.11,0,0,0-2-7.76,3.24,3.24,0,0,0-1-1.29C83.8,288.19,83.17,288.52,82.94,289.47Z"/><path class="cls-5" d="M93.42,203.59a9.37,9.37,0,0,0,.44,5.18c.39,1.17.65,2.38,1.11,3.53a16.78,16.78,0,0,0,1,2.08,1.08,1.08,0,0,0,2,0,5,5,0,0,0,.61-2.64,18.11,18.11,0,0,0-2-7.76,3.24,3.24,0,0,0-1-1.29C94.28,202.3,93.64,202.64,93.42,203.59Z"/><path class="cls-5" d="M130.32,261a9.37,9.37,0,0,0-.9,5.12c.08,1.23,0,2.46.17,3.69a16.78,16.78,0,0,0,.4,2.25,1.08,1.08,0,0,0,1.89.51,5,5,0,0,0,1.27-2.39,18.11,18.11,0,0,0,0-8,3.24,3.24,0,0,0-.64-1.5C131.48,260,130.78,260.19,130.32,261Z"/><path class="cls-5" d="M122.34,294.89a9.37,9.37,0,0,0-.9,5.12c.08,1.23,0,2.46.17,3.69A16.78,16.78,0,0,0,122,306a1.08,1.08,0,0,0,1.89.51,5,5,0,0,0,1.27-2.39,18.11,18.11,0,0,0,0-8,3.24,3.24,0,0,0-.64-1.5C123.49,293.87,122.8,294,122.34,294.89Z"/><path class="cls-5" d="M100.83,249.75a9.37,9.37,0,0,0,2.16,4.73c.76,1,1.41,2,2.23,2.95a16.78,16.78,0,0,0,1.6,1.63,1.08,1.08,0,0,0,1.85-.65,5,5,0,0,0-.31-2.69,18.11,18.11,0,0,0-4.52-6.62,3.24,3.24,0,0,0-1.37-.87C101.21,248.25,100.72,248.78,100.83,249.75Z"/><path class="cls-6" d="M169.07,352.88a75.37,75.37,0,1,1,98.84,59.72L273,427.66l-16.88-5.77-14.33,10.63.24-15.89A75.38,75.38,0,0,1,169.07,352.88Z"/><path class="cls-7" d="M274.61,295.86c1-.25,2.08-.39,3.11-.62,2.26-.52,2.26-.53,2.26-2.93a13,13,0,0,1,.18-3.69c.11-.39.21-.86.68-.95s.66.41.82.77a30.86,30.86,0,0,0,2.49,3.85,1.66,1.66,0,0,0,2.22.73c1-.27,1.95-.46,2.93-.65a1,1,0,0,1,.94.38c.3.39-.07.66-.28.9-.47.53-1,1-1.46,1.53-.75.82-1.08,1.58,0,2.51s2.24,2.23,3.36,3.36c.29.29.79.67.58,1s-.74,0-1.06-.22a19.42,19.42,0,0,0-4.23-1.71,1.93,1.93,0,0,0-2.55.9,36.8,36.8,0,0,1-3.41,4.72c-.32.37-.49,1.07-1.19.76s-.48-.92-.38-1.4a22.13,22.13,0,0,0,.46-4.91c0-.74-.17-1.14-1-1.33a21.82,21.82,0,0,1-4.36-1.36c-.32-.15-.69-.18-.92-.58C273.58,296.24,274.1,296,274.61,295.86Zm7.14-.4a2.89,2.89,0,0,0-.46,2.54,7.45,7.45,0,0,0,3.73.55,2.14,2.14,0,0,0,.7-2.58C284.89,294.66,283.5,294.48,281.75,295.46Zm0,7.73c.77-1,1.53-2,2.25-3.09.22-.33,0-.55-.37-.58-.63-.06-1.27-.08-1.91-.11a.42.42,0,0,0-.48.4c-.06,1.1-.09,2.19-.13,3.32C281.29,303.47,281.55,303.48,281.77,303.19Zm.16-12.3c-.13-.18-.28-.44-.53-.34s-.21.4-.2.63c0,.52.09,1,.12,1.57.05,1.13,1,1.58,2,1,.65-.38,0-.67,0-.87C282.83,292.12,282.38,291.5,281.93,290.89Zm-2.28,7c.42-.19.33-.57.33-.91s-.07-.78-.53-.75c-.93.07-1.86.22-2.78.37-.23,0-.41.21-.24.5A10.09,10.09,0,0,0,279.65,297.86Zm7.59-2.5c.35-.36,1-.85.72-1.23s-1.05,0-1.58.19-.41.48-.17.79S286.82,295.8,287.24,295.36Zm.86,3.87c.39-.13.08-.49-.11-.67-.35-.31-.56-1-1.19-.66a.64.64,0,0,0-.28.9C287,299,287.55,299.42,288.1,299.23Z"/><path class="cls-7" d="M289,329.51c.81-.56,1.68-1,2.5-1.58,1.8-1.21,1.79-1.22,1-3.31a12.09,12.09,0,0,1-1.08-3.28c0-.38-.1-.82.28-1.05s.72.14,1,.4a28.79,28.79,0,0,0,3.45,2.52,1.55,1.55,0,0,0,2.18-.1c.75-.56,1.54-1.05,2.33-1.55a.9.9,0,0,1,.95,0c.39.24.16.59.06.88-.23.61-.52,1.21-.76,1.82-.38,1-.41,1.74.83,2.19s2.7,1.2,4,1.8c.35.16.91.32.83.67s-.65.23-1,.16a18.12,18.12,0,0,0-4.26-.07,1.8,1.8,0,0,0-1.92,1.64,34.34,34.34,0,0,1-1.39,5.25c-.16.43-.07,1.09-.78,1.06s-.73-.64-.8-1.09a20.65,20.65,0,0,0-1.24-4.43c-.26-.64-.53-.93-1.33-.82a20.36,20.36,0,0,1-4.25.27c-.32,0-.66.07-1-.2C288.25,330.18,288.61,329.79,289,329.51Zm6.09-2.74a2.7,2.7,0,0,0,.45,2.37,7,7,0,0,0,3.43-.77,2,2,0,0,0-.26-2.48C297.58,325,296.3,325.34,295.11,326.77Zm2.6,6.73c.33-1.14.65-2.29.93-3.44.09-.36-.22-.47-.51-.39-.57.16-1.14.35-1.7.54a.39.39,0,0,0-.28.51c.32,1,.66,1.94,1,2.94C297.38,333.9,297.61,333.83,297.71,333.5Zm-4-10.77c-.17-.11-.39-.29-.57-.12s-.05.42,0,.61c.2.45.43.88.63,1.33.43,1,1.38,1,2.07.18.44-.55-.2-.59-.26-.77Zm.34,6.83c.3-.31.1-.6,0-.9s-.33-.66-.71-.48c-.79.37-1.54.81-2.3,1.25a.29.29,0,0,0,0,.52A9.42,9.42,0,0,0,294.08,329.56Zm5.78-4.71c.18-.43.6-1.08.22-1.31s-.91.38-1.32.69-.2.56.12.74S299.63,325.38,299.86,324.85Zm2,3.08c.29-.25-.09-.46-.32-.54-.4-.15-.81-.66-1.26-.17a.6.6,0,0,0,.06.88C300.89,328.1,301.48,328.29,301.9,327.93Z"/><path class="cls-7" d="M206.73,309.88c.6-.78,1.29-1.49,1.91-2.27,1.35-1.7,1.34-1.71-.05-3.45a12.09,12.09,0,0,1-2-2.8c-.15-.35-.35-.75-.05-1.09s.73-.09,1,.08a28.79,28.79,0,0,0,4.06,1.35,1.55,1.55,0,0,0,2-.76c.54-.76,1.15-1.47,1.75-2.18a.9.9,0,0,1,.91-.27c.45.11.33.52.32.82,0,.66-.13,1.31-.17,2-.07,1,.14,1.78,1.45,1.83,1.47.06,2.94.32,4.41.49.38,0,1,0,1,.38s-.55.41-.9.46a18.12,18.12,0,0,0-4.08,1.22,1.8,1.8,0,0,0-1.33,2.14,34.34,34.34,0,0,1,.27,5.43c0,.46.27,1.06-.42,1.25s-.89-.39-1.1-.8a20.65,20.65,0,0,0-2.53-3.85,1.06,1.06,0,0,0-1.52-.38,20.36,20.36,0,0,1-4,1.55c-.32.08-.61.27-1,.11C206.2,310.76,206.43,310.27,206.73,309.88Zm5-4.46a2.7,2.7,0,0,0,1.15,2.12,7,7,0,0,0,3-1.77,2,2,0,0,0-1-2.29C213.52,303,212.4,303.7,211.7,305.42Zm4.52,5.62c0-1.19-.08-2.38-.16-3.56,0-.37-.35-.38-.61-.21-.5.32-1,.68-1.46,1a.39.39,0,0,0-.12.57c.6.83,1.22,1.65,1.84,2.49C216,311.53,216.23,311.39,216.22,311Zm-7-9.06c-.2-.05-.46-.16-.58.06s.08.41.22.57c.33.36.68.71,1,1.08.7.79,1.63.58,2-.46.25-.66-.37-.5-.48-.65Zm2.4,6.41c.19-.38-.09-.61-.29-.85s-.51-.53-.82-.24c-.64.6-1.22,1.24-1.81,1.89a.29.29,0,0,0,.12.51A9.42,9.42,0,0,0,211.56,308.4Zm4.08-6.25c0-.47.24-1.22-.19-1.32s-.75.64-1,1.06,0,.59.33.67S215.59,302.72,215.64,302.15Zm2.88,2.32c.2-.32-.23-.41-.47-.42-.43,0-1-.38-1.25.22a.6.6,0,0,0,.32.82C217.62,304.94,218.23,304.94,218.52,304.47Z"/><path class="cls-7" d="M280.53,366.29c.64-.84,1.38-1.6,2-2.43,1.45-1.82,1.44-1.83-.06-3.7a13,13,0,0,1-2.16-3c-.16-.38-.37-.81-.06-1.17s.78-.09,1.12.09a30.86,30.86,0,0,0,4.35,1.45,1.66,1.66,0,0,0,2.19-.81c.58-.81,1.23-1.58,1.88-2.34a1,1,0,0,1,1-.29c.48.12.36.55.34.88,0,.7-.14,1.4-.19,2.1-.07,1.11.15,1.91,1.56,2,1.58.06,3.15.34,4.72.53.41,0,1,0,1.07.41s-.59.44-1,.49a19.42,19.42,0,0,0-4.37,1.31,1.93,1.93,0,0,0-1.42,2.29,36.8,36.8,0,0,1,.29,5.82c0,.5.29,1.14-.45,1.34s-1-.42-1.17-.85a22.13,22.13,0,0,0-2.71-4.12,1.13,1.13,0,0,0-1.63-.4,21.82,21.82,0,0,1-4.25,1.66c-.34.08-.65.29-1.08.12C280,367.23,280.21,366.71,280.53,366.29Zm5.33-4.78a2.89,2.89,0,0,0,1.23,2.27,7.45,7.45,0,0,0,3.25-1.9,2.14,2.14,0,0,0-1.07-2.45C287.82,358.93,286.62,359.66,285.86,361.51Zm4.85,6c0-1.27-.08-2.55-.17-3.82,0-.39-.38-.41-.65-.23-.53.35-1,.73-1.56,1.11a.42.42,0,0,0-.12.61c.64.89,1.3,1.77,2,2.67C290.5,368.06,290.72,367.91,290.71,367.54Zm-7.56-9.71c-.21-.06-.49-.17-.62.06s.08.44.24.61c.35.39.73.76,1.08,1.15.75.85,1.75.62,2.17-.49.27-.7-.4-.54-.51-.7Zm2.57,6.87c.2-.41-.09-.65-.31-.91s-.55-.57-.88-.25c-.68.64-1.31,1.33-1.94,2a.31.31,0,0,0,.12.54A10.09,10.09,0,0,0,285.72,364.7Zm4.37-6.69c0-.5.26-1.3-.21-1.41s-.8.69-1.12,1.13,0,.64.36.72S290,358.62,290.09,358Zm3.09,2.48c.22-.35-.24-.44-.5-.45-.46,0-1-.41-1.34.23a.64.64,0,0,0,.34.88C292.21,361,292.86,361,293.18,360.49Z"/><path class="cls-7" d="M254.12,395.89c.64-.84,1.38-1.6,2-2.43,1.45-1.82,1.44-1.83-.06-3.7a13,13,0,0,1-2.16-3c-.16-.38-.37-.81-.06-1.17s.78-.09,1.12.09a30.86,30.86,0,0,0,4.35,1.45,1.66,1.66,0,0,0,2.19-.81c.58-.81,1.23-1.58,1.88-2.34a1,1,0,0,1,1-.29c.48.12.36.55.34.88,0,.7-.14,1.4-.19,2.1-.07,1.11.15,1.91,1.56,2,1.58.06,3.15.34,4.72.53.41,0,1,0,1.07.41s-.59.44-1,.49a19.42,19.42,0,0,0-4.37,1.31,1.93,1.93,0,0,0-1.42,2.29,36.8,36.8,0,0,1,.29,5.82c0,.5.29,1.14-.45,1.34s-1-.42-1.17-.85a22.13,22.13,0,0,0-2.71-4.12,1.13,1.13,0,0,0-1.63-.4,21.82,21.82,0,0,1-4.25,1.66c-.34.08-.65.29-1.08.12C253.55,396.83,253.8,396.31,254.12,395.89Zm5.33-4.78a2.89,2.89,0,0,0,1.23,2.27,7.45,7.45,0,0,0,3.25-1.9,2.14,2.14,0,0,0-1.07-2.45C261.41,388.53,260.2,389.27,259.45,391.12Zm4.85,6c0-1.27-.08-2.55-.17-3.82,0-.39-.38-.41-.65-.23-.53.35-1,.73-1.56,1.11a.42.42,0,0,0-.12.61c.64.89,1.3,1.77,2,2.67C264.09,397.66,264.3,397.51,264.29,397.15Zm-7.56-9.71c-.21-.06-.49-.17-.62.06s.08.44.24.61c.35.39.73.76,1.08,1.15.75.85,1.75.62,2.17-.49.27-.7-.4-.54-.51-.7Zm2.57,6.87c.2-.41-.09-.65-.31-.91s-.55-.57-.88-.25c-.68.64-1.31,1.33-1.94,2a.31.31,0,0,0,.12.54A10.09,10.09,0,0,0,259.31,394.31Zm4.37-6.69c0-.5.26-1.3-.21-1.41s-.8.69-1.12,1.13,0,.64.36.72S263.62,388.22,263.68,387.61Zm3.09,2.48c.22-.35-.24-.44-.5-.45-.46,0-1-.41-1.34.23a.64.64,0,0,0,.34.88C265.79,390.6,266.45,390.6,266.77,390.1Z"/><path class="cls-7" d="M236.85,367.86c.61-.79,1.31-1.51,1.93-2.3,1.37-1.72,1.36-1.73-.06-3.5a12.25,12.25,0,0,1-2-2.83c-.15-.36-.35-.76-.05-1.1s.74-.09,1.06.08a29.17,29.17,0,0,0,4.11,1.37,1.57,1.57,0,0,0,2.07-.77c.55-.77,1.16-1.49,1.78-2.21a.91.91,0,0,1,.92-.28c.45.11.34.52.32.83,0,.66-.13,1.32-.17,2-.07,1,.14,1.8,1.47,1.86,1.49.06,3,.33,4.46.5.39,0,1,0,1,.39s-.56.42-.92.46a18.36,18.36,0,0,0-4.13,1.24,1.83,1.83,0,0,0-1.35,2.17,34.79,34.79,0,0,1,.27,5.5c0,.47.27,1.07-.43,1.27s-.9-.39-1.11-.81a20.92,20.92,0,0,0-2.56-3.9,1.07,1.07,0,0,0-1.54-.38,20.62,20.62,0,0,1-4,1.57c-.32.08-.62.27-1,.11C236.32,368.75,236.55,368.25,236.85,367.86Zm5-4.52a2.74,2.74,0,0,0,1.16,2.15,7,7,0,0,0,3.07-1.8,2,2,0,0,0-1-2.32C243.74,360.9,242.61,361.6,241.89,363.34Zm4.58,5.7c0-1.2-.08-2.41-.16-3.61,0-.37-.35-.38-.62-.21-.51.33-1,.69-1.48,1a.4.4,0,0,0-.12.58c.6.84,1.23,1.67,1.87,2.53C246.28,369.53,246.48,369.39,246.47,369Zm-7.14-9.17c-.2-.05-.46-.16-.59.06s.08.42.22.58c.33.37.69.72,1,1.09.71.8,1.65.59,2.05-.46.25-.67-.38-.51-.48-.66Zm2.43,6.49c.19-.39-.09-.61-.3-.86s-.52-.54-.83-.24c-.64.6-1.24,1.26-1.83,1.91a.29.29,0,0,0,.12.51A9.54,9.54,0,0,0,241.76,366.36Zm4.13-6.33c0-.47.25-1.23-.19-1.33s-.76.65-1.06,1.07,0,.6.34.68S245.84,360.61,245.89,360Zm2.92,2.35c.21-.33-.23-.41-.48-.43-.44,0-1-.38-1.27.22a.61.61,0,0,0,.33.83C247.89,362.86,248.51,362.85,248.81,362.38Z"/><path class="cls-7" d="M247.88,322.11c1,.21,2,.54,3.08.76,2.27.5,2.27.48,3.29-1.68a13,13,0,0,1,1.74-3.26c.27-.31.56-.69,1-.56s.42.66.41,1a30.86,30.86,0,0,0,.61,4.54c.14,1.14.73,1.45,1.7,1.61s2,.41,2.93.66a1,1,0,0,1,.69.74c.11.48-.34.57-.64.69-.65.28-1.32.49-2,.76-1,.43-1.65,1-1.08,2.27.64,1.44,1.08,3,1.61,4.47.14.39.43.94.1,1.14s-.66-.34-.87-.65a19.42,19.42,0,0,0-3.1-3.35,1.93,1.93,0,0,0-2.69-.27,36.8,36.8,0,0,1-5.09,2.82c-.45.2-.89.76-1.4.18s0-1,.25-1.43a22.13,22.13,0,0,0,2.51-4.25,1.13,1.13,0,0,0-.35-1.64,21.82,21.82,0,0,1-3.36-3.09c-.22-.27-.55-.46-.58-.92C246.79,322,247.37,322,247.88,322.11Zm6.64,2.68c-.52,0-1.6,1.55-1.5,2.1a7.45,7.45,0,0,0,3.14,2.08,2.14,2.14,0,0,0,1.73-2C257.7,325.4,256.51,324.65,254.52,324.78Zm-3.27,7c1.13-.59,2.25-1.2,3.35-1.84.34-.2.2-.52-.08-.68-.55-.33-1.12-.62-1.68-.92a.42.42,0,0,0-.6.16c-.52,1-1,1.95-1.53,3C250.69,331.83,250.92,332,251.24,331.79Zm5.38-11.06c0-.22-.06-.51-.33-.53s-.36.27-.44.48c-.2.49-.36,1-.56,1.47-.43,1,.21,1.84,1.4,1.74.75-.07.31-.6.4-.77C256.92,322.22,256.78,321.48,256.62,320.73Zm-5,5.33c.46,0,.54-.37.68-.68s.27-.74-.16-.9c-.87-.33-1.77-.59-2.67-.85-.22-.06-.46,0-.43.35A10.09,10.09,0,0,0,251.59,326.06Zm7.94,1c.47-.18,1.29-.34,1.18-.81s-1-.42-1.51-.51-.58.26-.49.64S259,327.25,259.53,327Zm-.87,3.87c.41,0,.28-.41.18-.65-.18-.43-.09-1.11-.8-1.1a.64.64,0,0,0-.64.7C257.78,330.25,258.07,330.84,258.66,330.9Z"/><path class="cls-7" d="M199.5,379.61c1,.21,2,.54,3.08.76,2.27.5,2.27.48,3.29-1.68a13,13,0,0,1,1.74-3.26c.27-.31.56-.69,1-.56s.42.66.41,1a30.86,30.86,0,0,0,.61,4.54c.14,1.14.73,1.45,1.7,1.61s2,.41,2.93.66a1,1,0,0,1,.69.74c.11.48-.34.57-.64.69-.65.28-1.32.49-2,.76-1,.43-1.65,1-1.08,2.27.64,1.44,1.08,3,1.61,4.47.14.39.43.94.1,1.14s-.66-.34-.87-.65a19.42,19.42,0,0,0-3.1-3.35,1.93,1.93,0,0,0-2.69-.27,36.8,36.8,0,0,1-5.09,2.82c-.45.2-.89.76-1.4.18s0-1,.25-1.43a22.13,22.13,0,0,0,2.51-4.25,1.13,1.13,0,0,0-.35-1.64,21.82,21.82,0,0,1-3.36-3.09c-.22-.27-.55-.46-.58-.92C198.4,379.51,199,379.5,199.5,379.61Zm6.64,2.68c-.52,0-1.6,1.55-1.5,2.1a7.45,7.45,0,0,0,3.14,2.08,2.14,2.14,0,0,0,1.73-2C209.32,382.9,208.13,382.15,206.13,382.28Zm-3.27,7c1.13-.59,2.25-1.2,3.35-1.84.34-.2.2-.52-.08-.68-.55-.33-1.12-.62-1.68-.92a.42.42,0,0,0-.6.16c-.52,1-1,1.95-1.53,3C202.31,389.33,202.53,389.46,202.86,389.29Zm5.38-11.06c0-.22-.06-.51-.33-.53s-.36.27-.44.48c-.2.49-.36,1-.56,1.47-.43,1,.21,1.84,1.4,1.74.75-.07.31-.6.4-.77C208.53,379.72,208.39,379,208.24,378.23Zm-5,5.33c.46,0,.54-.37.68-.68s.27-.74-.16-.9c-.87-.33-1.77-.59-2.67-.85-.22-.06-.46,0-.43.35A10.09,10.09,0,0,0,203.21,383.56Zm7.94,1c.47-.18,1.29-.34,1.18-.81s-1-.42-1.51-.51-.58.26-.49.64S210.57,384.75,211.14,384.53Zm-.87,3.87c.41,0,.28-.41.18-.65-.18-.43-.09-1.11-.8-1.1a.64.64,0,0,0-.64.7C209.39,387.75,209.69,388.34,210.28,388.4Z"/><path class="cls-7" d="M240.36,281.53c1,.21,2,.54,3.08.76,2.27.5,2.27.48,3.29-1.68a13,13,0,0,1,1.74-3.26c.27-.31.56-.69,1-.56s.42.66.41,1a30.86,30.86,0,0,0,.61,4.54c.14,1.14.73,1.45,1.7,1.61s2,.41,2.93.66a1,1,0,0,1,.69.74c.11.48-.34.57-.64.69-.65.28-1.32.49-2,.76-1,.43-1.65,1-1.08,2.27.64,1.44,1.08,3,1.61,4.47.14.39.43.94.1,1.14s-.66-.34-.87-.65a19.42,19.42,0,0,0-3.1-3.35,1.93,1.93,0,0,0-2.69-.27,36.8,36.8,0,0,1-5.09,2.82c-.45.2-.89.76-1.4.18s0-1,.25-1.43a22.13,22.13,0,0,0,2.51-4.25,1.13,1.13,0,0,0-.35-1.64,21.82,21.82,0,0,1-3.36-3.09c-.22-.27-.55-.46-.58-.92C239.26,281.44,239.84,281.43,240.36,281.53Zm6.64,2.68c-.52,0-1.6,1.55-1.5,2.1a7.45,7.45,0,0,0,3.14,2.08,2.14,2.14,0,0,0,1.73-2C250.18,284.83,249,284.07,247,284.21Zm-3.27,7c1.13-.59,2.25-1.2,3.35-1.84.34-.2.2-.52-.08-.68-.55-.33-1.12-.62-1.68-.92a.42.42,0,0,0-.6.16c-.52,1-1,1.95-1.53,3C243.16,291.26,243.39,291.39,243.72,291.22Zm5.38-11.06c0-.22-.06-.51-.33-.53s-.36.27-.44.48c-.2.49-.36,1-.56,1.47-.43,1,.21,1.84,1.4,1.74.75-.07.31-.6.4-.77C249.39,281.65,249.25,280.9,249.1,280.16Zm-5,5.33c.46,0,.54-.37.68-.68s.27-.74-.16-.9c-.87-.33-1.77-.59-2.67-.85-.22-.06-.46,0-.43.35A10.09,10.09,0,0,0,244.07,285.49Zm7.94,1c.47-.18,1.29-.34,1.18-.81s-1-.42-1.51-.51-.58.26-.49.64S251.43,286.68,252,286.46Zm-.87,3.87c.41,0,.28-.41.18-.65-.18-.43-.09-1.11-.8-1.1a.64.64,0,0,0-.64.7C250.25,289.68,250.55,290.27,251.13,290.33Z"/><path class="cls-7" d="M206.3,347.8c.72-.78,1.52-1.47,2.25-2.24,1.6-1.68,1.59-1.69.27-3.69a13,13,0,0,1-1.89-3.18c-.12-.39-.3-.84,0-1.17s.78,0,1.11.19a30.86,30.86,0,0,0,4.2,1.83,1.66,1.66,0,0,0,2.26-.62c.65-.76,1.37-1.46,2.08-2.16a1,1,0,0,1,1-.21c.47.16.31.58.26.91-.1.7-.26,1.38-.37,2.08-.17,1.1,0,1.91,1.38,2.1,1.57.2,3.11.62,4.66.94.4.08,1,.12,1,.51s-.63.39-1,.4a19.42,19.42,0,0,0-4.47.91,1.93,1.93,0,0,0-1.62,2.16,36.8,36.8,0,0,1-.23,5.82c-.06.49.18,1.16-.57,1.3s-.91-.5-1.09-1a22.13,22.13,0,0,0-2.33-4.35,1.13,1.13,0,0,0-1.59-.55,21.82,21.82,0,0,1-4.38,1.28c-.34.05-.68.23-1.08,0C205.65,348.69,205.94,348.19,206.3,347.8Zm5.73-4.29a2.89,2.89,0,0,0,1,2.37,7.45,7.45,0,0,0,3.41-1.61,2.14,2.14,0,0,0-.85-2.54C214.21,341.12,212.94,341.74,212,343.52Zm4.29,6.43c.08-1.27.15-2.55.17-3.82,0-.4-.34-.44-.63-.28-.56.3-1.11.64-1.65,1a.42.42,0,0,0-.18.6c.56.95,1.14,1.88,1.73,2.84C216.07,350.45,216.3,350.32,216.32,350Zm-6.66-10.34c-.21-.07-.47-.21-.62,0s0,.45.18.63c.32.42.66.82,1,1.24.67.91,1.69.77,2.21-.29.33-.68-.35-.57-.45-.74Zm1.95,7.07c.24-.39,0-.65-.23-.94s-.49-.61-.86-.33c-.74.58-1.43,1.21-2.11,1.85a.31.31,0,0,0,.08.55A10.09,10.09,0,0,0,211.6,346.68Zm4.95-6.28c.09-.49.38-1.27-.08-1.42s-.86.61-1.22,1-.07.63.29.75S216.44,341,216.55,340.4Zm2.86,2.75c.25-.33-.2-.46-.46-.49-.46-.07-1-.5-1.35.11a.64.64,0,0,0,.26.9C218.39,343.57,219,343.62,219.41,343.15Z"/><path class="cls-7" d="M175.42,335.76c.72-.78,1.52-1.47,2.25-2.24,1.6-1.68,1.59-1.69.27-3.69a13,13,0,0,1-1.89-3.18c-.12-.39-.3-.84,0-1.17s.78,0,1.11.19a30.86,30.86,0,0,0,4.2,1.83,1.66,1.66,0,0,0,2.26-.62c.65-.76,1.37-1.46,2.08-2.16a1,1,0,0,1,1-.21c.47.16.31.58.26.91-.1.7-.26,1.38-.37,2.08-.17,1.1,0,1.91,1.38,2.1,1.57.2,3.11.62,4.66.94.4.08,1,.12,1,.51s-.63.39-1,.4a19.42,19.42,0,0,0-4.47.91,1.93,1.93,0,0,0-1.62,2.16,36.8,36.8,0,0,1-.23,5.82c-.06.49.18,1.16-.57,1.3s-.91-.5-1.09-1a22.13,22.13,0,0,0-2.33-4.35,1.13,1.13,0,0,0-1.59-.55,21.82,21.82,0,0,1-4.38,1.28c-.34.05-.68.23-1.08,0C174.77,336.65,175.06,336.15,175.42,335.76Zm5.73-4.29a2.89,2.89,0,0,0,1,2.37,7.45,7.45,0,0,0,3.41-1.61,2.14,2.14,0,0,0-.85-2.54C183.33,329.08,182.07,329.7,181.15,331.48Zm4.29,6.43c.08-1.27.15-2.55.17-3.82,0-.4-.34-.44-.63-.28-.56.3-1.11.64-1.65,1a.42.42,0,0,0-.18.6c.56.95,1.14,1.88,1.73,2.84C185.19,338.41,185.42,338.28,185.44,337.91Zm-6.66-10.34c-.21-.07-.47-.21-.62,0s0,.45.18.63c.32.42.66.82,1,1.24.67.91,1.69.77,2.21-.29.33-.68-.35-.57-.45-.74Zm1.95,7.07c.24-.39,0-.65-.23-.94s-.49-.61-.86-.33c-.74.58-1.43,1.21-2.11,1.85a.31.31,0,0,0,.08.55A10.09,10.09,0,0,0,180.72,334.64Zm4.95-6.28c.09-.49.38-1.27-.08-1.42s-.86.61-1.22,1-.07.63.29.75S185.56,329,185.67,328.36Zm2.86,2.75c.25-.33-.2-.46-.46-.49-.46-.07-1-.5-1.35.11a.64.64,0,0,0,.26.9C187.51,331.52,188.17,331.58,188.53,331.11Z"/><path class="cls-8" d="M168.22,139.48A75.37,75.37,0,1,1,261.92,207l3.83,15.42-16.36-7.12-15.14,9.44,1.53-15.81A75.38,75.38,0,0,1,168.22,139.48Z"/><g class="cls-9"><circle class="cls-7" cx="301.33" cy="122.84" r="5.13" transform="translate(48.78 328.05) rotate(-61.27)"/><circle class="cls-7" cx="301.07" cy="147.84" r="4.17" transform="translate(26.73 340.81) rotate(-61.27)"/><circle class="cls-7" cx="232.96" cy="116.36" r="4.17" transform="translate(18.96 264.73) rotate(-61.27)"/><circle class="cls-7" cx="272.9" cy="134.16" r="5.13" transform="matrix(0.48, -0.88, 0.88, 0.48, 24.09, 309)"/><circle class="cls-7" cx="286.24" cy="97.03" r="5.13" transform="translate(63.58 301.41) rotate(-61.27)"/><circle class="cls-7" cx="266.89" cy="110.99" r="3.85" transform="translate(41.3 291.69) rotate(-61.27)"/><circle class="cls-7" cx="243.84" cy="138.11" r="5.13" transform="translate(5.53 285.57) rotate(-61.27)"/><circle class="cls-7" cx="248.72" cy="172.95" r="4.17" transform="translate(-22.48 307.94) rotate(-61.27)"/><circle class="cls-7" cx="219.86" cy="177.59" r="5.13" transform="translate(-41.54 285.05) rotate(-61.27)"/><circle class="cls-7" cx="237.62" cy="199.61" r="4.17" transform="translate(-51.62 312.05) rotate(-61.27)"/><circle class="cls-7" cx="221.6" cy="149.89" r="4.17" transform="translate(-16.35 272.18) rotate(-61.27)"/><circle class="cls-7" cx="195.82" cy="170.26" r="5.13" transform="translate(-47.6 260.15) rotate(-61.27)"/><circle class="cls-7" cx="183.19" cy="139.95" r="5.13" transform="translate(-27.58 233.34) rotate(-61.27)"/><circle class="cls-7" cx="213.5" cy="127.33" r="5.13" transform="translate(-0.77 253.36) rotate(-61.27)"/><circle class="cls-7" cx="190.52" cy="115.91" r="5.13" transform="translate(-2.69 227.28) rotate(-61.27)"/><circle class="cls-7" cx="205.6" cy="87.33" r="3.53" transform="translate(30.2 225.66) rotate(-61.27)"/><circle class="cls-7" cx="231.03" cy="76.13" r="5.13" transform="translate(53.24 242.14) rotate(-61.27)"/><circle class="cls-7" cx="268.6" cy="78.01" r="5.13" transform="translate(71.1 276.06) rotate(-61.27)"/><circle class="cls-7" cx="239.91" cy="96.2" r="5.13" transform="translate(40.25 260.35) rotate(-61.27)"/><circle class="cls-7" cx="290.66" cy="174.3" r="5.13" transform="translate(-1.88 345.42) rotate(-61.27)"/><circle class="cls-7" cx="269.66" cy="159.28" r="5.13" transform="translate(0.38 319.2) rotate(-61.27)"/><circle class="cls-7" cx="264.04" cy="186.6" r="5.13" transform="translate(-26.5 328.47) rotate(-61.27)"/></g><path class="cls-10" d="M102.87,555.13a75.37,75.37,0,1,1,115.41,4L230,569.85,212.48,573l-7.34,16.26-7.52-14A75.38,75.38,0,0,1,102.87,555.13Z"/><g class="cls-9"><circle class="cls-7" cx="197.3" cy="492.67" r="4.2" transform="translate(-329.56 428.91) rotate(-61.27)"/><circle class="cls-7" cx="192.29" cy="557.93" r="3.41" transform="translate(-389.39 458.41) rotate(-61.27)"/><circle class="cls-7" cx="177.89" cy="570.73" r="3.41" transform="translate(-408.1 452.43) rotate(-61.27)"/><circle class="cls-7" cx="208.29" cy="562.73" r="3.41" transform="translate(-385.29 474.94) rotate(-61.27)"/><circle class="cls-7" cx="195.49" cy="521.13" r="3.41" transform="translate(-355.46 442.1) rotate(-61.27)"/><circle class="cls-7" cx="219.49" cy="522.73" r="3.41" transform="translate(-344.4 463.98) rotate(-61.27)"/><circle class="cls-7" cx="206.69" cy="540.33" r="3.41" transform="translate(-366.48 461.9) rotate(-61.27)"/><circle class="cls-7" cx="141.36" cy="487.37" r="3.41" transform="translate(-353.97 377.1) rotate(-61.27)"/><circle class="cls-7" cx="174.04" cy="501.93" r="4.2" transform="translate(-349.77 413.33) rotate(-61.27)"/><circle class="cls-7" cx="184.95" cy="471.55" r="4.2" transform="translate(-317.46 407.11) rotate(-61.27)"/><circle class="cls-7" cx="169.13" cy="482.97" r="3.15" transform="translate(-335.69 399.16) rotate(-61.27)"/><circle class="cls-7" cx="157.93" cy="442.97" r="3.15" transform="translate(-306.43 368.57) rotate(-61.27)"/><circle class="cls-7" cx="210.73" cy="478.17" r="3.15" transform="translate(-309.88 433.15) rotate(-61.27)"/><circle class="cls-7" cx="225.13" cy="492.57" r="3.15" transform="translate(-315.02 453.26) rotate(-61.27)"/><circle class="cls-7" cx="193.13" cy="452.57" r="3.15" transform="translate(-296.57 404.42) rotate(-61.27)"/><circle class="cls-7" cx="150.26" cy="505.17" r="4.2" transform="translate(-364.95 394.15) rotate(-61.27)"/><circle class="cls-7" cx="154.26" cy="533.67" r="3.41" transform="translate(-387.87 412.46) rotate(-61.27)"/><circle class="cls-7" cx="120.66" cy="556.07" r="3.41" transform="translate(-424.97 394.63) rotate(-61.27)"/><circle class="cls-7" cx="210.26" cy="508.07" r="3.41" transform="translate(-336.34 448.27) rotate(-61.27)"/><circle class="cls-7" cx="130.64" cy="537.47" r="4.2" transform="translate(-403.47 393.73) rotate(-61.27)"/><circle class="cls-7" cx="145.17" cy="555.48" r="3.41" transform="translate(-411.72 415.82) rotate(-61.27)"/><circle class="cls-7" cx="146.77" cy="571.48" r="3.41" transform="translate(-424.92 425.54) rotate(-61.27)"/><circle class="cls-7" cx="132.06" cy="514.81" r="3.41" transform="translate(-382.86 383.2) rotate(-61.27)"/><circle class="cls-7" cx="110.97" cy="531.47" r="4.2" transform="translate(-408.43 373.36) rotate(-61.27)"/><circle class="cls-7" cx="100.64" cy="506.67" r="4.2" transform="translate(-392.05 351.42) rotate(-61.27)"/><circle class="cls-7" cx="125.44" cy="496.34" r="4.2" transform="translate(-370.11 367.8) rotate(-61.27)"/><circle class="cls-7" cx="106.64" cy="487" r="4.2" transform="translate(-371.68 346.46) rotate(-61.27)"/><circle class="cls-7" cx="118.97" cy="463.62" r="2.88" transform="translate(-344.77 345.13) rotate(-61.27)"/><circle class="cls-7" cx="139.78" cy="454.45" r="4.2" transform="translate(-325.92 358.62) rotate(-61.27)"/><circle class="cls-7" cx="170.52" cy="455.99" r="4.2" transform="translate(-311.3 386.37) rotate(-61.27)"/><circle class="cls-7" cx="147.05" cy="470.87" r="4.2" transform="translate(-336.55 373.52) rotate(-61.27)"/><circle class="cls-7" cx="177.38" cy="539.57" r="4.2" transform="translate(-381.04 435.8) rotate(-61.27)"/><circle class="cls-7" cx="171.39" cy="522.49" r="4.2" transform="translate(-369.17 421.67) rotate(-61.27)"/><circle class="cls-7" cx="165.19" cy="557.64" r="4.2" transform="translate(-403.22 434.5) rotate(-61.27)"/></g></g></g></svg>