<?xml version="1.0" encoding="UTF-8" ?>
<!DOCTYPE svg PUBLIC "-//W3C//DTD SVG 1.1//EN" "http://www.w3.org/Graphics/SVG/1.1/DTD/svg11.dtd">
<svg width="506pt" height="78pt" viewBox="0 0 506 78" version="1.1" xmlns="http://www.w3.org/2000/svg">
<g id="#ffffffff">
<path fill="#ffffff" opacity="1.00" d=" M 48.38 0.00 L 63.44 0.00 C 62.72 4.14 62.19 8.32 61.25 12.42 C 59.65 17.53 54.53 21.49 49.11 21.37 C 43.10 21.42 37.09 21.30 31.08 21.42 C 30.63 24.20 30.13 26.97 29.60 29.73 C 39.19 29.72 48.78 29.73 58.37 29.72 C 57.68 32.94 57.41 36.26 56.39 39.41 C 54.53 43.95 49.97 47.50 44.98 47.62 C 38.80 47.75 32.62 47.58 26.44 47.68 C 25.44 53.81 24.32 59.91 23.27 66.02 C 22.53 70.94 18.70 75.12 13.97 76.51 C 9.37 77.36 4.66 76.77 0.01 76.89 C 3.24 58.98 6.35 41.04 9.50 23.11 C 10.19 19.47 10.52 15.65 12.33 12.33 C 15.47 6.21 21.55 1.73 28.32 0.47 C 33.33 0.35 43.37 0.12 48.38 0.00 Z" />
<path fill="#ffffff" opacity="1.00" d=" M 99.94 0.00 L 111.78 0.00 L 120.07 0.46 C 119.33 4.14 118.87 7.88 118.15 11.57 C 116.99 17.04 111.81 21.68 106.08 21.38 C 98.76 21.42 91.44 21.28 84.12 21.44 C 83.73 24.21 83.30 26.98 82.79 29.74 C 88.56 29.78 94.34 29.58 100.11 29.81 C 105.49 30.15 110.27 34.11 111.84 39.23 C 113.81 45.43 111.41 51.82 110.73 58.03 C 109.67 67.78 101.31 77.03 91.12 76.92 C 78.71 76.92 66.31 76.98 53.91 76.88 C 54.57 73.37 55.06 69.82 55.70 66.30 C 56.65 60.61 61.89 55.71 67.80 55.90 C 75.12 55.83 82.45 55.95 89.78 55.86 C 90.22 53.12 90.66 50.38 91.16 47.64 C 85.28 47.58 79.38 47.82 73.50 47.55 C 66.68 47.08 61.43 40.64 61.34 33.98 C 61.28 28.89 62.63 23.92 63.30 18.90 C 64.42 10.05 71.36 2.08 80.24 0.43 C 85.16 0.32 95.02 0.11 99.94 0.00 Z" />
<path fill="#ffffff" opacity="1.00" d=" M 125.22 10.94 C 126.23 5.01 131.91 0.23 137.93 0.31 C 141.34 0.24 144.74 0.30 148.15 0.38 C 144.46 22.30 140.45 44.16 136.66 66.06 C 135.79 72.03 130.20 77.15 124.07 76.92 C 120.57 76.96 117.06 76.92 113.56 76.90 C 117.54 54.93 121.34 32.93 125.22 10.94 Z" />
<path fill="#ffffff" opacity="1.00" d=" M 185.27 15.28 C 191.05 7.56 200.20 2.19 209.96 2.01 C 216.89 1.76 224.76 3.04 229.46 8.65 C 233.09 12.70 234.04 18.32 233.89 23.58 C 231.95 23.61 230.02 23.64 228.09 23.65 C 227.94 18.12 225.97 11.94 220.77 9.18 C 215.17 6.44 208.41 6.45 202.54 8.34 C 192.18 12.02 185.56 22.44 183.99 32.99 C 182.89 41.35 179.81 49.86 181.93 58.31 C 183.49 64.97 189.03 70.66 195.94 71.60 C 204.02 72.67 212.75 71.21 219.50 66.44 C 220.82 65.81 220.82 64.26 221.10 63.03 C 222.06 57.36 223.13 51.70 224.04 46.03 C 217.57 46.10 211.09 46.05 204.61 46.05 C 204.90 44.37 205.20 42.68 205.50 40.99 C 214.02 41.01 222.55 40.99 231.07 41.00 C 229.59 49.35 228.13 57.72 226.64 66.07 C 226.58 67.52 225.33 68.39 224.34 69.24 C 215.41 76.14 203.39 78.35 192.42 76.29 C 184.66 74.76 178.24 68.58 176.11 61.00 C 173.47 52.43 176.20 43.60 177.52 35.06 C 178.56 28.00 180.85 20.97 185.27 15.28 Z" />
<path fill="#ffffff" opacity="1.00" d=" M 340.47 2.68 C 348.97 1.02 359.10 2.00 365.23 8.78 C 371.19 15.27 372.13 24.78 370.65 33.13 C 369.07 41.39 368.42 50.02 364.58 57.64 C 360.10 66.80 351.63 74.28 341.49 76.30 C 334.51 77.62 326.76 77.36 320.59 73.50 C 313.81 69.16 310.69 60.78 310.89 52.97 C 311.15 45.55 312.91 38.28 314.23 31.00 C 316.95 17.81 326.85 5.43 340.47 2.68 M 340.51 7.73 C 334.29 9.12 329.03 13.35 325.54 18.58 C 321.57 24.31 320.04 31.25 319.00 38.02 C 317.76 45.26 315.84 52.82 318.06 60.07 C 319.42 64.77 322.77 69.02 327.47 70.68 C 337.30 74.12 349.07 70.60 355.29 62.21 C 362.04 54.03 362.73 43.08 364.60 33.10 C 365.86 26.08 365.38 18.03 360.49 12.42 C 355.56 6.91 347.33 6.22 340.51 7.73 Z" />
<path fill="#ffffff" opacity="1.00" d=" M 255.28 3.01 C 264.18 3.01 273.08 2.97 281.98 3.02 C 287.72 3.21 294.04 4.47 298.06 8.94 C 301.87 13.24 301.87 19.56 300.58 24.86 C 298.69 32.30 292.41 38.04 285.22 40.34 C 288.98 41.42 292.85 43.58 294.21 47.48 C 296.93 54.60 293.05 61.87 293.21 69.09 C 293.15 71.59 294.63 73.71 295.27 76.05 C 293.06 76.07 290.86 76.05 288.65 76.07 C 284.58 68.75 289.39 60.55 288.88 52.87 C 288.50 47.37 283.27 43.61 278.08 43.25 C 270.16 42.81 262.22 43.20 254.30 43.04 C 252.32 54.05 250.41 65.06 248.46 76.06 C 246.44 76.06 244.42 76.06 242.41 76.06 C 246.69 51.71 251.01 27.36 255.28 3.01 M 260.46 8.05 C 258.67 18.02 256.98 28.00 255.16 37.97 C 262.47 37.93 269.80 38.22 277.11 37.78 C 283.10 37.38 289.32 34.77 292.50 29.43 C 295.12 24.91 296.27 18.96 293.87 14.13 C 291.43 9.59 285.87 8.28 281.12 8.10 C 274.23 8.00 267.34 8.11 260.46 8.05 Z" />
<path fill="#ffffff" opacity="1.00" d=" M 390.23 3.01 C 392.27 3.00 394.30 3.00 396.35 3.00 C 393.43 19.66 390.45 36.31 387.55 52.97 C 386.61 58.06 387.33 63.98 391.35 67.63 C 396.64 72.50 404.62 72.67 411.25 71.06 C 419.59 69.03 426.31 61.92 427.72 53.43 C 430.75 36.64 433.68 19.83 436.63 3.02 C 438.65 3.01 440.67 3.00 442.71 3.00 C 439.75 19.68 436.86 36.38 433.86 53.05 C 432.65 59.85 429.21 66.40 423.61 70.58 C 416.14 76.36 406.13 78.01 396.96 76.49 C 391.54 75.56 386.19 72.68 383.36 67.83 C 380.61 63.14 380.66 57.43 381.57 52.23 C 384.44 35.82 387.37 19.42 390.23 3.01 Z" />
<path fill="#ffffff" opacity="1.00" d=" M 460.37 3.08 C 468.58 2.90 476.80 3.05 485.01 2.99 C 490.26 2.94 495.83 3.64 500.19 6.80 C 503.12 8.87 505.06 12.07 506.00 15.50 L 506.00 24.69 C 504.54 34.80 496.25 43.22 486.29 45.17 C 477.27 46.82 468.03 45.76 458.92 46.06 C 457.15 56.06 455.38 66.06 453.62 76.06 C 451.60 76.06 449.57 76.06 447.56 76.06 C 451.81 51.73 456.21 27.43 460.37 3.08 M 465.60 8.07 C 463.68 19.05 461.73 30.02 459.80 41.00 C 468.15 40.74 476.57 41.61 484.86 40.38 C 495.64 38.56 503.05 26.07 499.30 15.77 C 497.50 10.78 492.14 8.31 487.13 8.14 C 479.95 7.96 472.77 8.11 465.60 8.07 Z" />
</g>
</svg>
