<svg xmlns="http://www.w3.org/2000/svg" viewBox="0 0 1358 773"><defs><style>.cls-1{fill:#fff;}</style></defs><title>WLineAsset 2</title><g id="Layer_2" data-name="Layer 2"><g id="Layer_1-2" data-name="Layer 1"><path class="cls-1" d="M3.74,0h2c43.48,44,87.43,87.45,131,131.27,23.17,21.11,44.64,44,67,66l202.5,202.5c8.79,8.54,17,17.75,26.51,25.49q136.46,136.53,273,273c26,24,50.51,49.72,75.58,74.75h-1.95c-24.81-24.64-48.89-50.1-74.63-73.75q-136.44-136.54-273-273c-9.53-7.74-17.72-16.95-26.51-25.49l-202.5-202.5c-22.22-21.78-43.52-44.55-66.52-65.48C92.14,88.43,47.66,44.5,3.74,0Z"/><path class="cls-1" d="M15.59,0h1.09c5,3.69,9.13,8.41,13.57,12.75l249,249c9.06,8.95,17.76,18.28,27.51,26.5q136.46,136.51,273,273c22.55,20.39,43.27,42.76,65,64C693.9,674.53,743.32,723.56,792.31,773h-2c-59.18-59.6-118.74-118.81-178.07-178.25-10.68-10.33-20.58-21.49-32-31Q470,453.49,359.75,343.25c-21.74-21.26-42.49-43.57-65-64Q155.24,139.57,15.59,0Z"/><path class="cls-1" d="M26.73,0h2c46.48,47,93.43,93.45,140,140.27,25.19,23.09,48.62,48,73,72l202.5,202.5c8.95,9.75,19.43,17.87,28.5,27.5l247.5,247.5c9.06,9,17.75,18.28,27.51,26.5,18.81,19,37.89,37.64,56.56,56.75h-2c-23-23.08-45.7-46.59-69.61-68.74q-135-135-270-270c-10.71-8.91-20-19.3-30-29Q307.52,280,182.27,154.73c-20-17.95-38.32-37.68-57.52-56.48C92.11,65.47,59.17,33,26.73,0Z"/><path class="cls-1" d="M38.69,0h1c4.59,5.2,9.88,9.68,15.07,14.25q136.49,136.5,273,273c22.55,20.39,43.27,42.76,65,64l202.5,202.5c8.79,8.54,17,17.75,26.51,25.49C686.22,643.88,751,708.22,815.3,773h-1.95c-46-46.41-92.43-92.47-138.6-138.75-20.47-19.87-39.78-41-61-60Q474.93,435.55,336.24,296.76a188,188,0,0,1-15.49-14.51l-267-267C48.57,10.36,42.26,6.34,38.69,0Z"/><path class="cls-1" d="M49.73,0h2c47,47.44,94.41,94.47,141.56,141.75a229.89,229.89,0,0,0,18.51,17.49q136.46,136.55,273,273c22.52,20.41,43.27,42.72,65,64l202.5,202.5c8.62,8.38,16.67,17.37,26,25,16.42,16.34,32.91,32.64,49.11,49.21h-2c-12.38-12.74-25.1-25.14-37.6-37.75-9.76-10.27-20.86-19.1-30.5-29.5l-202.5-202.5c-23.88-23.45-46.86-47.87-71.52-70.48q-134.91-135.09-270-270c-22.16-20.13-42.65-42-64-63C116.12,66.46,82.67,33.48,49.73,0Z"/><path class="cls-1" d="M61.68,0h1C73.5,12,86.11,22.1,97.25,33.75q132,132,264,264c11.43,9.52,21.33,20.67,32,31l204,204c19.53,19.13,38.21,39.18,58.52,57.48,60.76,61,121.9,121.63,182.51,182.77h-1.94c-43.36-43.75-87.1-87.13-130.59-130.75-21.11-20.56-41.11-42.29-63-62Q505.52,443,368.24,305.76a186.42,186.42,0,0,1-15.49-14.51l-267-267C77.27,16.7,68.38,9.19,61.68,0Z"/><path class="cls-1" d="M72.73,0h2c53,53.45,106.43,106.45,159.54,159.76,4.5,4.53,9.79,8.17,14,13q126,126,252,252c9.06,8.95,17.75,18.28,27.51,26.5q136.46,136.51,273,273C818,739.67,834,756.57,850.29,773h-1.95c-16-16.09-31.67-32.64-48.62-47.75q-136.44-136.54-273-273c-9.53-7.74-17.72-16.95-26.51-25.49l-202.5-202.5c-22.38-21.95-43.85-44.87-67-66C178.14,105.44,125.16,53,72.73,0Z"/><path class="cls-1" d="M84.68,0h1C104,19.47,124.26,36.92,142.75,56.25l202.5,202.5c17.31,17,34.1,34.63,51.71,51.34,20.2,18.73,39.09,38.88,58.79,58.16Q566,478.5,676.24,588.75c11.43,9.51,21.33,20.67,32,31,51,51.11,102.23,102,153.06,153.25h-2c-50.55-50.9-101.42-101.48-152.1-152.25-10.68-10.33-20.58-21.49-32-31Q565,479.49,454.75,369.25c-21.74-21.26-42.49-43.57-65-64Q254,169.45,118.26,33.73C106.7,22.93,94.47,12.43,84.68,0Z"/><path class="cls-1" d="M95.73,0h2c56,56.45,112.43,112.44,168.54,168.76,4.5,4.53,9.79,8.17,14,13q126,126,252,252c9.06,8.95,17.75,18.28,27.51,26.5Q697,597.52,834.24,734.75c10.4,8.54,19.34,18.66,29,28,3.12,3.31,6.89,6.16,9.06,10.26h-1c-12.54-12.58-24.67-25.64-38.11-37.25Q696,598.49,558.76,461.24c-7.36-5.94-13.84-12.82-20.51-19.49Q408.52,312,278.77,182.23c-28.68-26.6-55.63-55-83.52-82.48C162.12,66.46,128.67,33.48,95.73,0Z"/><path class="cls-1" d="M107.68,0h1c13.43,13.34,26.22,27.39,40.56,39.76Q286.51,177,423.74,314.26c21.9,19.7,41.9,41.43,63,62l202.5,202.5c9.06,9,17.75,18.28,27.51,26.5,55.79,56,111.9,111.62,167.52,167.75h-1.94c-37.36-37.75-75.1-75.13-112.59-112.75-20.47-19.87-39.78-41-61-60Q569.93,461.55,431.24,322.76a186.42,186.42,0,0,1-15.49-14.51q-133.5-133.5-267-267C136.88,31.17,126.41,19.6,115.23,8.77,112.57,6,109.44,3.51,107.68,0Z"/><path class="cls-1" d="M118.73,0h2c55,55.44,110.4,110.47,165.55,165.75,7,7,13.8,14.25,21.51,20.49q136.46,136.53,273,273c22.55,20.39,43.27,42.76,65,64l202.5,202.5c12.78,13.6,27,25.62,40,39,2.45,2.64,5.65,4.84,7.14,8.26h-1c-15.38-16.44-32.55-31-48.11-47.25l-202.5-202.5c-21.11-20.56-41.11-42.29-63-62Q443.51,324,306.23,186.76c-7.81-6.49-14.81-13.84-22-21C229.12,110.46,173.67,55.48,118.73,0Z"/><path class="cls-1" d="M129.73,0h2c13,13.44,26.4,26.43,39.5,39.76,22.74,20.55,43.62,43.07,65.55,64.49l202.5,202.5c8.41,8.26,16.39,17,25.5,24.5q136.49,136.51,273,273c22.52,20.41,43.27,42.72,65,64,34.8,35,69.91,69.62,104.53,104.75h-1.94C853,720.25,800.24,667.87,747.76,615.24c-7.36-5.94-13.84-12.82-20.51-19.49q-130.49-130.51-261-261c-20.5-18.44-39.31-38.7-59-58l-204-204c-10.29-10-20-20.72-31-30C158.08,28.49,143.7,14.45,129.73,0Z"/><path class="cls-1" d="M141.73,0h2q93,93.65,186.56,186.74c11,9.29,20.7,20,31,30l204,204c19.72,19.28,38.51,39.54,59,58Q758.45,613.05,892.74,747.26c8.14,8.92,19,15.58,25.66,25.74h-1c-8.89-9.93-19.44-18.12-28.61-27.75q-133.5-133.5-267-267c-11.87-10.1-22.38-21.63-33.51-32.5l-202.5-202.5c-19.24-18.76-37.5-38.58-57.52-56.49C266.14,124.44,203.66,62.49,141.73,0Z"/><path class="cls-1" d="M152.73,0h2c20.39,20.37,40.22,41.37,61.57,60.73Q350.45,195.06,484.73,329.27c3.67,4,8,7.31,12,11q136.49,136.51,273,273c22.52,20.41,43.27,42.72,65,64,31.8,32,63.91,63.62,95.53,95.75h-1.94c-31.36-31.75-63.1-63.13-94.59-94.75-20.47-19.87-39.78-41-61-60Q633.93,479.55,495.24,340.76c-7.15-5.82-13.49-12.5-20-19Q345.52,192,215.77,62.23C194,42.32,173.54,20.94,152.73,0Z"/><path class="cls-1" d="M164.73,0h2c64.48,65,129.41,129.46,194,194.26,18.14,16.14,34.63,34,52,51l202.5,202.5c13.18,12.82,25.57,26.48,39.51,38.5Q792,623.52,929.24,760.75c4,4,9.63,6.91,12.16,12.25h-1.06c-3.63-4.18-8-7.66-12.1-11.25Q791,624.49,653.76,487.25c-9.76-8.22-18.45-17.55-27.51-26.5q-126-126-252-252c-5.25-5.79-11.79-10.17-17-16C293.13,128.44,228.66,64.49,164.73,0Z"/><path class="cls-1" d="M175.73,0h2c14,14.44,28.39,28.47,42.55,42.75,7.89,7.78,15.41,16,24,23Q381.51,203,518.74,340.26c21.9,19.7,41.9,41.43,63,62l202.5,202.5c9.06,9,17.75,18.28,27.51,26.5C858.9,678.54,906.32,725.56,953.31,773h-2c-46.67-47.1-93.75-93.8-140.56-140.75-9.76-8.22-18.45-17.55-27.51-26.5l-202.5-202.5c-21.11-20.56-41.11-42.29-63-62Q380.52,204,243.24,66.76c-7.89-6.41-14.79-13.87-22-21C206.11,30.47,190.68,15.47,175.73,0Z"/><path class="cls-1" d="M187.73,0h2c64.49,64.94,129.39,129.47,194.05,194.25,8.3,9.06,18.05,16.59,26.5,25.5q133.49,133.5,267,267c11.43,9.51,21.33,20.67,32,31Q836.74,645.42,964.31,773h-2Q835.56,645.59,708.25,518.75c-10.68-10.33-20.58-21.49-32-31Q543.51,355,410.75,222.25c-9.27-9.76-19.9-18.06-29-28C317.11,129.47,252.17,65,187.73,0Z"/><path class="cls-1" d="M198.73,0h2c21.47,22,43.42,43.44,65,65.27,22.87,20.74,43.94,43.39,66,65l202.5,202.5c8.79,8.54,17,17.75,26.51,25.49q136.46,136.53,273,273c22.55,20.39,43.27,42.76,65,64,25.8,26,51.92,51.63,77.56,77.75h-2c-35.88-36.24-72.09-72.14-108.1-108.25-10.68-10.33-20.58-21.49-32-31Q724,523.49,613.75,413.25C594.05,394,575.16,373.82,555,355.09c-17.61-16.71-34.4-34.31-51.71-51.34l-204-204c-10.68-10.33-20.59-21.48-32-31C244.44,45.8,221.34,23.13,198.73,0Z"/><path class="cls-1" d="M210.73,0h2c70.47,70.94,141.4,141.44,212,212.24,11.57,9.72,21.7,21,32.53,31.51l204,204c17.31,17,34.1,34.63,51.71,51.34,20.2,18.73,39.09,38.88,58.79,58.16,71.81,72,143.91,143.64,215.56,215.75h-2Q852.05,639.13,718.26,505.73c-20.5-18.44-39.29-38.7-59-58l-202.5-202.5c-17.32-18.05-36.11-34.52-53.5-52.5C339.12,128.46,274.67,64.48,210.73,0Z"/><path class="cls-1" d="M221.73,0h2c25,25.45,50.41,50.43,75.51,75.75,21.77,19.5,41.58,41.12,62.54,61.5l202.5,202.5c9.06,8.95,17.75,18.28,27.51,26.5q136.46,136.51,273,273c22.55,20.39,43.27,42.76,65,64,23.13,23.29,46.58,46.27,69.52,69.75h-1.93c-22.69-23.09-45.77-45.79-68.59-68.75-21.76-21.24-42.48-43.61-65-64q-136.44-136.54-273-273c-9.53-7.74-17.72-16.95-26.51-25.49l-202.5-202.5c-22.08-21.59-43.15-44.24-66-65C271.14,49.43,246.16,25,221.73,0Z"/><path class="cls-1" d="M233.73,0h2c64.48,64.94,129.39,129.47,194.05,194.25,12.34,12,23.91,24.8,37,36q136.49,136.5,273,273c22.55,20.39,43.27,42.76,65,64Q907.49,670.18,1010.31,773h-2c-68-68.44-136.41-136.47-204.56-204.75-21.76-21.24-42.48-43.61-65-64q-136.44-136.54-273-273c-13.51-11.42-25.28-24.73-38-37C363.11,129.47,298.17,65,233.73,0Z"/><path class="cls-1" d="M244.73,0h2c27.47,28,55.42,55.44,83,83.27,20.17,18.09,38.63,38,58,57l202.5,202.5c11.13,10.87,21.64,22.4,33.51,32.5q133.47,133.51,267,267c5.25,5.78,11.29,10.69,17,16,38.09,38.33,76.57,76.28,114.5,114.77h-1.93c-30.19-30.58-60.76-60.8-91.09-91.25-10.68-10.33-20.58-21.49-32-31Q787,540.49,676.75,430.25c-20.47-19.87-39.78-41-61-60.05Q476.93,231.55,338.24,92.76c-8.58-7.05-16.1-15.23-24-23C291.11,46.46,267.67,23.48,244.73,0Z"/><path class="cls-1" d="M256.73,0h2c76,76.45,152.42,152.42,228.5,228.76,22.74,20.55,43.62,43.07,65.55,64.49l202.5,202.5c8.41,8.26,16.38,17,25.5,24.5Q906.95,646.68,1033.27,773h-1.93Q917.54,658.64,803.25,544.75c-10.68-10.33-20.58-21.49-32-31Q661,403.49,550.75,293.25c-21.88-21.45-42.85-43.87-65.52-64.48C409.14,152.44,332.66,76.49,256.73,0Z"/><path class="cls-1" d="M267.73,0h2c30,30.46,60.43,60.44,90.53,90.77,24.66,22.61,47.64,47,71.52,70.48l202.5,202.5c9.11,9.93,19.75,18.22,29,28q133.47,133.5,267,267c15.69,13.59,29.64,29.06,44.54,43.5,23.48,23.62,47.24,47,70.56,70.75h-2c-35-35.4-70.43-70.47-105.59-105.75-9.76-8.22-18.45-17.55-27.51-26.5l-247.5-247.5c-9.07-9.63-19.55-17.75-28.5-27.5l-202.5-202.5C407.2,139.14,383.57,114,358.23,90.77,328.15,60.43,297.66,30.49,267.73,0Z"/><path class="cls-1" d="M279.73,0h2c64,64.45,128.4,128.46,192.55,192.75,19.38,18.95,37.85,38.88,58,57q137.47,137.51,275,275c21,18.92,40.19,39.85,60.48,59.56,62.81,63,125.91,125.64,188.56,188.75h-2Q934.55,652.63,814.26,532.73c-5-5-10.75-9.21-15.52-14.47Q664.54,384,530.26,249.74c-19.67-17.61-37.62-37.05-56.51-55.49C409.11,129.47,344.17,65,279.73,0Z"/><path class="cls-1" d="M290.73,0h2c33,33.46,66.43,66.44,99.53,99.77,5,5.41,11.15,9.47,16,15q135,135,270,270c11.43,9.52,21.33,20.67,32,31l204,204c17.31,17,34.1,34.63,51.71,51.34,20.2,18.73,39.09,38.88,58.79,58.16,14.47,14.63,29.25,29,43.56,43.75h-2c-14-14.41-28.44-28.47-42.6-42.75-21.74-21.26-42.49-43.57-65-64q-136.46-136.56-273-273c-9.12-7.51-17.09-16.24-25.5-24.5q-126-126-252-252c-6.05-6.65-13.43-11.88-19.52-18.48C356.13,65.45,323.16,33,290.73,0Z"/><path class="cls-1" d="M302.73,0h2c81.47,82,163.43,163.44,245,245.27,22.87,20.74,43.94,43.39,66,65l202.5,202.5c8.79,8.54,17,17.75,26.51,25.49,78.11,78.31,156.57,156.28,234.51,234.76h-1.93q-89.55-90.12-179.59-179.75c-20.47-19.87-39.78-41-61-60Q697.93,394.55,559.24,255.76a242.9,242.9,0,0,1-19-18C461.12,158.46,381.67,79.48,302.73,0Z"/><path class="cls-1" d="M313.73,0h2c32,32.44,64.4,64.47,96.55,96.75,7.35,7.32,14.47,14.9,22.5,21.5l252,252c10.61,10.39,20.67,21.37,32,31q133.47,133.51,267,267a188.12,188.12,0,0,0,15.49,14.51c30,30.09,60.23,60,90.08,90.24h-2c-11-11.43-22.4-22.48-33.56-33.75-21.76-21.24-42.48-43.61-65-64q-136.44-136.54-273-273c-9.76-8.22-18.45-17.55-27.51-26.5l-247.5-247.5c-9.46-9.91-20.24-18.38-29.5-28.5C380.12,66.46,346.67,33.48,313.73,0Z"/><path class="cls-1" d="M325.73,0h2c84.47,85,169.43,169.44,254,254.27,22.87,20.74,43.94,43.39,66,65l202.5,202.5c8.79,8.54,17,17.75,26.51,25.49,75.12,75.31,150.57,150.28,225.51,225.76h-1.93q-112-112.62-224.58-224.76c-9.53-7.74-17.72-17-26.51-25.49l-202.5-202.5c-21.93-21.42-42.81-43.94-65.55-64.49C496.14,170.41,410.65,85.49,325.73,0Z"/><path class="cls-1" d="M336.73,0h2c33,33.44,66.4,66.47,99.55,99.75,9.46,9.21,18.32,19.07,28.5,27.5q136.49,136.51,273,273c22.52,20.41,43.27,42.72,65,64Q915,574.5,1025.24,684.75c11.42,9.51,21.33,20.67,32,31,19,19.11,38.23,38,57.06,57.25h-2c-26.51-26.93-53.39-53.49-80.07-80.24a188.12,188.12,0,0,1-15.49-14.51q-133.5-133.5-267-267c-11.34-9.63-21.4-20.61-32-31q-126-126-252-252c-12.68-10.59-23.61-23.06-35.51-34.49C399.12,62.46,367.67,31.48,336.73,0Z"/><path class="cls-1" d="M348.73,0h2c63,63.45,126.4,126.46,189.55,189.75C566.92,216.07,592.92,243.11,620,269c26.39,25.24,51.74,51.59,77.74,77.25q100.49,100.51,201,201c17.85,15.75,33.94,33.4,51,50,58.49,58.62,117.23,117,175.56,175.75h-2q-108-108.66-216.56-216.75c-13.31-11.3-25-24.38-37.5-36.5l-202.5-202.5c-17.89-17.46-34.87-35.88-53.55-52.49C525.14,176.41,436.65,88.49,348.73,0Z"/><path class="cls-1" d="M359.73,0h2c43,43.43,86.37,86.48,129.55,129.72,8.63,7,16.06,15.28,24,23l250.5,250.5a186.42,186.42,0,0,0,15.49,14.51Q920,556.43,1058.75,695.2c27,25,52.45,51.81,78.56,77.8h-2c-23.37-23.75-47.11-47.13-70.59-70.76-9.53-7.74-17.72-17-26.51-25.49l-202.5-202.5c-21.76-21.24-42.48-43.61-65-64q-136.44-136.54-273-273c-13.71-11.55-25.59-25.08-38.51-37.49C426.12,66.46,392.67,33.48,359.73,0Z"/><path class="cls-1" d="M371.73,0h2Q504.17,131.16,635.25,261.75c6.67,6.67,13.15,13.55,20.51,19.49q136.46,136.54,273,273c22.52,20.41,43.27,42.72,65,64,51.49,51.62,103.23,103,154.56,154.75h-2c-51-51.44-102.41-102.47-153.56-153.75-20.47-19.87-39.78-41-61-60Q792.93,420.55,654.24,281.76c-7.48-6.16-14.16-13.16-21-20Q502.56,130.82,371.73,0Z"/><path class="cls-1" d="M382.73,0h2c45,45.46,90.44,90.44,135.54,135.78,22.37,20.23,42.95,42.38,64.52,63.47Q695,309.5,805.24,419.75c11.43,9.51,21.33,20.67,32,31l204,204c19,18.34,36.72,38,56.51,55.49,20.79,21,41.91,41.63,62.55,62.76h-2c-21.46-21.63-42.89-43.31-64.7-64.57-18.52-16.77-35.46-35.27-53.4-52.68l-204-204c-10.68-10.33-20.58-21.49-32-31Q670,286.47,535.76,152.24c-4.45-4.94-9.67-9-14.55-13.49C475.13,92.43,428.65,46.48,382.73,0Z"/><path class="cls-1" d="M394.59,0h1c24.19,22.22,46.67,46.27,70.15,69.25l202.5,202.5c9,9.75,19.43,17.87,28.5,27.5l247.5,247.5c9.06,9,17.75,18.28,27.51,26.5,66.47,66.62,133.22,133,199.55,199.75h-2c-48-48.44-96.41-96.47-144.56-144.75-21.74-21.26-42.49-43.57-65-64q-136.46-136.56-273-273c-9.12-7.51-17.09-16.24-25.5-24.5q-129-129-258-258C400.53,5.66,396.1,4,394.59,0Z"/><path class="cls-1" d="M405.73,0h2c33,33.44,66.41,66.47,99.56,99.75,18.71,18.29,36.53,37.52,56,55Q697.45,289.06,831.74,423.26c4.32,4.7,9.33,8.66,14,13q136.46,136.51,273,273c22.37,20.35,43.18,42.39,64.6,63.75h-2q-27.63-28-55.64-55.69c-6.74-5.23-12.38-11.64-18.46-17.56Q976,568.5,844.76,437.25c-11.34-9.63-21.4-20.61-32-31q-124.49-124.51-249-249c-21.33-19.27-41-40.36-61.52-60.48C470.12,64.46,437.67,32.48,405.73,0Z"/><path class="cls-1" d="M417.69,0h1c6.88,7.92,15.42,14.1,22.58,21.74q134.94,135,270,270c15.69,13.59,29.64,29.06,44.54,43.5Q873.47,453,991.23,570.77c23,20.93,44.3,43.7,66.52,65.48,45.48,45.62,91.24,91,136.55,136.75h-2c-45-45.41-90.43-90.47-135.6-135.75-22.22-21.78-43.52-44.55-66.52-65.48Q872.54,453.95,754.75,336.25c-14.9-14.44-28.85-29.91-44.54-43.5q-134.91-135.06-270-270C433.24,14.66,423.44,9.15,417.69,0Z"/><path class="cls-1" d="M428.73,0h2c33,33.44,66.41,66.47,99.56,99.75,21.74,21.26,42.48,43.57,65,64Q731,299.56,866.74,435.27c22.52,20.41,43.27,42.72,65,64q109.47,109.51,219,219c19.33,17.39,37.2,36.37,55.6,54.75h-2c-18.11-18-35.61-36.71-54.63-53.75q-109.44-109.54-219-219c-21.74-21.26-42.49-43.57-65-64q-136.46-136.56-273-273c-8-6.6-15.15-14.18-22.5-21.5C523.12,94.46,475.67,47.48,428.73,0Z"/><path class="cls-1" d="M440.68,0h1C453,12.48,466.06,23.15,477.75,35.25Q610.47,168,743.21,300.75c15.69,13.59,29.64,29.06,44.54,43.5Q905.47,462,1023.23,579.77c23,20.93,44.3,43.7,66.52,65.48,42.48,42.62,85.24,85,127.55,127.75h-2c-42-42.41-84.43-84.47-126.6-126.75-21.76-21.24-42.48-43.61-65-64q-136.44-136.54-273-273c-9.53-7.74-17.72-16.95-26.51-25.49L521.75,81.25c-22.53-22.13-44.21-45.18-67.52-66.48C449.78,9.8,444.11,5.8,440.68,0Z"/><path class="cls-1" d="M451.73,0h2c33,33.44,66.41,66.47,99.56,99.75,25.23,24.77,49.5,50.56,75.52,74.48Q758.45,304.05,888.25,433.75c6.5,6.51,12.84,13.19,20,19Q1047,591.44,1185.75,730.2c15.32,13.37,29.13,28.43,43.52,42.8h-1.93c-14.09-14-27.61-28.73-42.59-41.8Q1045.93,592.55,907.24,453.76a186.42,186.42,0,0,1-15.49-14.51l-267-267c-11.23-9.38-21-20.33-31.5-30.5C546.12,94.46,498.67,47.48,451.73,0Z"/><path class="cls-1" d="M463.68,0h1C477.16,13,490,25.61,503.26,37.74q126,126,252,252c9.06,8.95,17.75,18.28,27.51,26.5q136.46,136.51,273,273c22.55,20.39,43.27,42.76,65,64,39.8,40,79.91,79.62,119.53,119.75h-1.94c-57.35-57.76-115.12-115.11-172.57-172.77-5.73-5.29-11.77-10.2-17-16q-133.5-133.5-267-267c-11.34-9.62-21.4-20.61-32-31Q624.52,161,499.27,35.73C486.82,24.49,474.26,13,463.68,0Z"/><path class="cls-1" d="M474.73,0h2c56.48,57,113.43,113.45,170.05,170.27,22.52,20.41,43.27,42.72,65,64Q822,344.5,932.24,454.75c11.42,9.51,21.33,20.67,32,31Q1091,612.46,1217.75,739.2c9.55,7.72,17.64,17,26.51,25.54,2.43,2.66,5.63,4.86,7.14,8.26h-1c-11.08-11.06-21.67-22.68-33.61-32.8q-126.82-126.66-253.5-253.45c-10.68-10.33-20.59-21.49-32-31Q821,345.49,710.75,235.25c-21.11-20.56-41.11-42.29-63-62C590.13,115.45,532.16,58,474.73,0Z"/><path class="cls-1" d="M486.68,0h1C502.54,14.92,517,30.28,532.77,44.23q136.43,136.58,273,273c21.9,19.7,41.9,41.43,63,62l202.5,202.5c9,9,17.75,18.28,27.51,26.5,54.81,55,109.89,109.65,164.55,164.75h-2c-54.38-54.74-109.1-109.14-163.59-163.75-9.76-8.22-18.46-17.55-27.51-26.5l-202.5-202.5c-21.11-20.56-41.11-42.29-63-62Q667.52,181,530.24,43.76c-11.74-9.88-22-21.36-33-32C493.67,7.89,489.24,4.68,486.68,0Z"/><path class="cls-1" d="M497.73,0h2c55,55.45,110.4,110.46,165.55,165.75,7.56,7.44,14.74,15.3,23,22Q825.51,325,962.74,462.26c21.9,19.7,41.9,41.43,63,62l202.5,202.5c13.14,13.89,27.71,26.26,41,40,1.79,2,4,3.74,5.12,6.27h-1.07c-8.38-8.41-16.35-17.3-25.57-24.8q-126.82-126.66-253.5-253.45c-10.68-10.33-20.59-21.49-32-31Q852,353.49,741.75,243.25c-21.74-21.26-42.49-43.57-65-64C617.13,119.44,557.16,60,497.73,0Z"/><path class="cls-1" d="M508.73,0h2c18.19,18.24,35.94,37,55.07,54.23q134.9,135.09,270,270c18.51,16.44,35.3,34.72,53,52l202.5,202.5c12.92,12.41,24.8,25.93,38.51,37.49,52.13,52.3,104.56,104.31,156.55,156.76h-2c-33.71-34.07-67.76-67.81-101.6-101.75-21.74-21.26-42.49-43.57-65-64q-134.94-135.07-270-270c-22.35-20.26-43-42.38-64.52-63.48l-204-204c-8.75-8.59-17.06-17.65-26.48-25.51C538.08,29.5,523.2,15,508.73,0Z"/><path class="cls-1" d="M520.73,0h2c63,63.44,126.4,126.46,189.54,189.75,11.43,9.52,21.33,20.67,32,31l204,204c17.31,17,34.1,34.63,51.71,51.34,20.2,18.73,39.09,38.88,58.79,58.16l202.5,202.5c9.44,9.57,18.93,19.09,29,28,2.44,2.65,5.62,4.87,7.12,8.28h-1a178.58,178.58,0,0,0-17.6-16.76q-133-133-266-266c-9.76-10.27-20.87-19.1-30.5-29.5l-202.5-202.5c-24.22-23.78-47.51-48.55-72.52-71.48C645.14,124.44,582.66,62.49,520.73,0Z"/><path class="cls-1" d="M531.73,0h2C552.32,18.82,570.87,37.74,590,56.09,610.16,74.81,629,95,648.75,114.25Q759,224.5,869.24,334.75c11.43,9.52,21.33,20.67,32,31l204,204c17.31,17,34.1,34.63,51.71,51.34,20.2,18.73,39.09,38.88,58.79,58.16,31.14,31.29,62.58,62.3,93.56,93.75h-2c-30.71-31.07-61.76-61.81-92.6-92.75-21.74-21.26-42.49-43.57-65-64q-136.46-136.56-273-273c-4-3.67-8.36-7-12-11Q730.56,197.95,596.27,63.73C574,43.32,553.05,21.43,531.73,0Z"/><path class="cls-1" d="M543.73,0h2c64.47,65,129.42,129.45,194,194.27,19.1,17.18,36.68,36,55,54l202.5,202.5c12.92,12.41,24.8,25.93,38.51,37.49Q1173,625.52,1310.23,762.76c3.32,3.4,8.22,5.63,10.17,10.24h-1c-15.93-14.47-30.81-30.1-46.12-45.25l-202.5-202.5c-14.9-14.44-28.85-29.91-44.54-43.5q-134.91-135.06-270-270c-5.7-6.35-12.74-11.24-18.52-17.48C673.13,129.45,608.16,65,543.73,0Z"/><path class="cls-1" d="M554.73,0h2c19,19.45,38.42,38.45,57.53,57.77,22.67,20.61,43.64,43,65.52,64.48l202.5,202.5c9.06,8.95,17.75,18.28,27.51,26.5q136.46,136.51,273,273c22.55,20.39,43.27,42.76,65,64,28.15,28.29,56.57,56.31,84.56,84.75h-2c-27.67-28.1-55.75-55.8-83.57-83.75-21.76-21.24-42.48-43.61-65-64q-136.44-136.54-273-273c-9.76-8.22-18.45-17.55-27.51-26.5l-249-249a141.53,141.53,0,0,0-14-13.07C597,42.52,575.7,21.43,554.73,0Z"/><path class="cls-1" d="M566.73,0h2c64.49,64.94,129.39,129.47,194,194.25,9.3,10.06,20.07,18.56,29.5,28.5q133.47,133.51,267,267c15.69,13.59,29.64,29.06,44.54,43.5,79.8,80,159.91,159.62,239.53,239.75h-1.94q-119-119.62-238.59-238.75c-14.9-14.44-28.85-29.91-44.54-43.5Q925.55,357.94,792.75,225.25c-10.25-10.79-21.9-20.07-32-31C696.11,129.47,631.17,65,566.73,0Z"/><path class="cls-1" d="M577.73,0h2c23,23.43,46.37,46.49,69.56,69.74,11,9.29,20.7,20,31,30l204,204c19.72,19.28,38.51,39.54,59,58Q1076,494.54,1208.75,627.25c5.25,5.78,11.29,10.69,17,16,43.1,43.33,86.56,86.31,129.53,129.77h-2c-42.66-43.11-85.77-85.78-128.55-128.77-5.73-5.29-11.77-10.2-17-16q-133.5-133.5-267-267c-11.87-10.1-22.38-21.63-33.51-32.5l-202.5-202.5c-18.77-18.23-36.47-37.62-56-55C625.09,47.47,601.18,24,577.73,0Z"/><path class="cls-1" d="M589.73,0h2c63,63.45,126.4,126.46,189.55,189.75,11.32,11,21.94,22.77,34,33Q954,361.43,1092.75,500.2c21.21,19.05,40.53,40.18,61,60.05q102.15,102,204.25,204.11v1c-3-1.22-5-4-7.27-6.13q-98.93-99.07-198-198c-19.7-19.28-38.59-39.43-58.79-58.16-17.61-16.71-34.4-34.31-51.71-51.34l-204-204c-10.68-10.33-20.58-21.48-32-31C734.12,144.45,661.67,72.48,589.73,0Z"/><path class="cls-1" d="M600.73,0h2c17.49,17.94,35.39,35.48,53,53.25,11.31,11,22,22.77,34,33q136.49,136.5,273,273c22.55,20.39,43.27,42.76,65,64l202.5,202.5c8.36,8,15.9,16.83,25,24.06,34.4,34,68.36,68.53,102.8,102.54v2c-34.82-34.28-69.06-69.15-103.8-103.5-9-7.23-16.59-16.1-25-24.06l-202.5-202.5c-21.76-21.24-42.48-43.61-65-64q-136.44-136.54-273-273a160.9,160.9,0,0,1-14-13C650.12,49.46,625.17,25,600.73,0Z"/><path class="cls-1" d="M612.73,0h2c73.47,74,147.42,147.45,221,221.27,23.17,21.11,44.64,44,67,66l202.5,202.5c8.41,8.26,16.38,17,25.5,24.5Q1244.41,627.77,1358,741.35v2c-58.27-57.83-116.14-116.07-174.25-174.06-21.11-20.56-41.11-42.29-63-62Q983.52,370,846.24,232.76c-14-12-26.27-25.74-39.49-38.51C742.11,129.47,677.17,65,612.73,0Z"/><path class="cls-1" d="M623.73,0h2c28,28.45,56.42,56.44,84.53,84.77,22.67,20.61,43.64,43,65.52,64.48l202.5,202.5c9.06,8.95,17.75,18.28,27.51,26.5q136.46,136.51,273,273c27.36,25,52.59,52.34,79.28,78.1v1.95c-27.07-26-52.57-53.72-80.28-79q-136.44-136.54-273-273c-9.76-8.22-18.45-17.55-27.51-26.5l-244.5-244.5c-6.09-5.94-11.75-12.34-18.48-17.57C684,60.51,653.7,30.43,623.73,0Z"/><path class="cls-1" d="M635.73,0h2q116.22,116.9,233,233.23a221.79,221.79,0,0,1,17,16l247.5,247.5c8.62,8.38,16.67,17.37,26,25,65.71,65.41,131,131.21,196.79,196.56v2c-66.14-65.63-131.73-131.82-197.8-197.51-9-7.23-16.59-16.09-25-24.06l-202.5-202.5c-22.38-21.95-43.85-44.87-67-66C789.14,153.44,712.16,77,635.73,0Z"/><path class="cls-1" d="M646.73,0h2c31,31.45,62.42,62.42,93.5,93.76,20.71,18.57,39.64,39.05,59.55,58.49q114,114,228,228a122.05,122.05,0,0,1,11.51,10.54Q1168,517.54,1294.75,644.25c8.09,7.9,15.7,16.34,24.46,23.54,13,12.71,25.65,25.89,38.79,38.53v2c-16.17-15.27-31-31.95-47.76-46.56Q1173,524.49,1035.76,387.25c-13.94-12-26.33-25.68-39.51-38.5l-202.5-202.5c-17.38-17-33.87-34.85-52-51C710.12,63.46,678.17,32,646.73,0Z"/><path class="cls-1" d="M658.73,0h2c64.48,64.94,129.39,129.47,194,194.25,19.39,18.94,37.83,38.89,58,57q134.93,135.07,270,270c3.66,4,8,7.31,12,11,54.44,54.33,108.65,108.89,163.25,163.07v2c-46.93-46.5-93.47-93.4-140.25-140.06-16.47-17.24-34.42-32.88-51-50l-201-201c-21.76-21.24-42.48-43.61-65-64C820.12,161.43,739.16,81,658.73,0Z"/><path class="cls-1" d="M669.73,0h2c32,32.44,64.4,64.46,96.55,96.75a192.3,192.3,0,0,0,16,15Q923,250.44,1061.75,389.2c21.21,19.05,40.53,40.18,61,60.05l202.5,202.5c10.48,11,21.7,21.19,32.75,31.6v2c-11.36-10.76-23-21.23-33.75-32.56l-202.5-202.5c-21.74-21.26-42.49-43.57-65-64q-136.46-136.56-273-273c-7.23-6.08-13.89-12.77-20.5-19.5C732.11,62.46,700.67,31.48,669.73,0Z"/><path class="cls-1" d="M681.73,0h2q120,120.66,240.55,240.75a228.22,228.22,0,0,0,18.51,17.49q136.46,136.54,273,273c22.52,20.41,43.27,42.72,65,64,25.77,25.66,51.31,51.56,77.25,77.06v2c-26.27-25.84-52.14-52.08-78.25-78.07-20.47-19.87-39.79-41-61-60Q1081.46,399,944.27,261.73c-23.67-21.61-45.64-45-68.52-67.48C811.11,129.47,746.17,65,681.73,0Z"/><path class="cls-1" d="M692.73,0h2c33,33.44,66.4,66.47,99.55,99.75,10.26,11.11,22.07,20.56,32.5,31.5Q959.47,264,1092.21,396.75c15.69,13.59,29.64,29.06,44.54,43.5Q1247.42,550.74,1358,661.32v1.07c-2.53-1.09-4.32-3.32-6.27-5.12q-125.16-125.34-250.47-250.54c-20.5-18.44-39.29-38.7-59-58l-202.5-202.5c-16.8-17.57-35.09-33.55-52-51C756.11,63.47,724.17,32,692.73,0Z"/><path class="cls-1" d="M704.73,0h2Q837.22,131.1,968.27,261.68c19,16.94,36.19,35.85,54.48,53.57l202.5,202.5c10.67,10.32,20.57,21.48,32,31,33.63,33.48,67,67.22,100.76,100.58v2c-34.48-33.95-68.39-68.49-102.8-102.5a142.68,142.68,0,0,1-13.45-12.56q-132-132-264-264c-27.16-25.12-52.65-52-79-78C834.11,129.47,769.17,65,704.73,0Z"/><path class="cls-1" d="M715.73,0h2c33,33.44,66.4,66.47,99.55,99.75,10.34,10,19.91,20.8,31,30Q981,262.46,1113.75,395.25c5.71,5.62,11.09,11.63,17.45,16.56,75.73,75.37,151,151.2,226.8,226.53v1.95c-76.16-75.6-151.74-151.79-227.79-227.5a186.39,186.39,0,0,1-15.46-14.54l-267-267c-11.53-9.75-21.69-21-32.5-31.5C782.12,66.46,748.67,33.48,715.73,0Z"/><path class="cls-1" d="M727.73,0h2q120,120.68,240.55,240.75c11.83,11.5,22.92,23.79,35.5,34.5q135,135,270,270c28.25,26.13,54.62,54.25,82.26,81v2c-23.8-23.3-47.08-47.14-70.79-70.52-8.76-7.2-16.37-15.64-24.46-23.54Q1136,407.49,1009.26,280.74c-4.25-4.81-9.53-8.45-14-13C906.14,178.44,816.66,89.49,727.73,0Z"/><path class="cls-1" d="M738.73,0h2c33,33.44,66.4,66.47,99.55,99.75,13,12.62,25.2,26.19,39,38q137.26,137.22,274.5,274.5c21.9,19.7,41.9,41.43,63,62,47.1,47,94,94.22,141.25,141.1v2c-47.6-47.16-94.81-94.74-142.25-142.06-21.11-20.56-41.11-42.29-63-62Q1015.52,276,878.24,138.76c-14.17-12.11-26.59-26.09-40-39C805.12,66.46,771.67,33.48,738.73,0Z"/><path class="cls-1" d="M750.73,0h2q137.22,137.93,275,275.26c22.2,20.08,42.59,42.08,64,63l202.5,202.5c8.62,8.38,16.67,17.37,26,25,12.73,12.37,25,25.24,37.79,37.55v1.94c-13.17-12.59-25.73-25.8-38.79-38.49-8.76-7.2-16.37-15.64-24.46-23.54l-249-249a223.65,223.65,0,0,0-17-16Q889.77,139.07,750.73,0Z"/><path class="cls-1" d="M761.73,0h2c45.48,46,91.44,91.44,137,137.27,22.87,20.74,43.94,43.39,66,65l202.5,202.5c8.36,8,15.9,16.83,25,24.06,54.73,54.37,109,109.2,163.8,163.53v1.95c-36.63-36.13-72.8-72.73-109.25-109-19.7-19.28-38.59-39.43-58.79-58.16-17.61-16.71-34.4-34.31-51.71-51.34l-204-204c-10.83-10.53-21-21.79-32.53-31.51C855.11,93.43,808.16,47,761.73,0Z"/><path class="cls-1" d="M773.68,0h1c18.24,16.83,35.44,34.78,53.09,52.25l202.5,202.5c12.72,12.27,24.52,25.54,38,37Q1207,430.43,1345.75,569.2A164.63,164.63,0,0,1,1358,580.3v2c-18.64-16.76-35.94-34.94-53.75-52.57l-193.5-193.5c-17.73-17.28-34.52-35.56-53-52q-136.44-136.55-273-273C781.06,7.51,776,5,773.68,0Z"/><path class="cls-1" d="M784.73,0h2c49.5,49.92,99.36,99.48,149.06,149.2,21.22,19.05,40.53,40.18,61,60.05l202.5,202.5c8.62,8.38,16.67,17.37,26,25,44.38,44,88.32,88.55,132.79,132.52v2c-44.8-44.29-89.06-89.15-133.8-133.5-9-7.23-16.59-16.09-25-24.06l-202.5-202.5c-22.08-21.59-43.15-44.24-66-65C882.14,97.43,833.16,49,784.73,0Z"/><path class="cls-1" d="M796.68,0h1a225.19,225.19,0,0,0,20.07,19.25q136.49,136.52,273,273c22.52,20.41,43.27,42.72,65,64q101.16,101,202.25,202.11v1a11.9,11.9,0,0,1-3.24-2.13q-127-127-254-254c-4.69-4.33-9.71-8.29-14-13q-135-135-270-270C809.65,14,802,7.89,796.68,0Z"/><path class="cls-1" d="M807.73,0h2q79,79.61,158.58,158.69c19,16.93,36.19,35.84,54.48,53.56l202.5,202.5c10.67,10.32,20.59,21.46,32,31,33.71,33.39,67,67.22,100.79,100.55v1.94c-35.74-34.68-70-71-106.17-105.12q-139.55-138.95-278.59-278.4c-8.58-7-16.1-15.23-24-23C902.12,94.46,854.67,47.48,807.73,0Z"/><path class="cls-1" d="M819.68,0h1c9.1,9.35,18.13,18.79,28.08,27.25q135,135,270,270c4.31,4.7,9.33,8.66,14,13Q1245.4,422.77,1358,535.34v1.95c-57.63-57.13-114.8-114.73-172.25-172-21.74-21.26-42.49-43.57-65-64Q985.05,165.45,849.26,29.74C839.06,20.23,828.12,11.11,819.68,0Z"/><path class="cls-1" d="M830.73,0h2c54,54.46,108.44,108.44,162.54,162.77,24.66,22.61,47.64,47,71.52,70.48l202.5,202.5c9.63,10.4,20.74,19.23,30.5,29.5,19.45,19.32,38.65,38.91,58.25,58.09v1.93c-25.45-24.31-49.24-50.39-75.25-74.07q-138.82-138.65-277.51-277.44c-11.74-9.88-22-21.35-33-32C925.12,94.46,877.67,47.48,830.73,0Z"/><path class="cls-1" d="M842.68,0h1c13.85,14.27,27.92,28.33,42.58,41.74q135,135,270,270c11.42,9.52,21.33,20.67,32,31q84.91,84.75,169.75,169.6v2c-57.1-56.67-113.8-113.75-170.75-170.57-10.68-10.33-20.59-21.48-32-31q-135-135-270-270C870.72,28.92,855.45,15.45,842.68,0Z"/><path class="cls-1" d="M853.73,0h2c58,58.45,116.41,116.43,174.51,174.75,4.88,4.46,10.1,8.55,14.55,13.49Q1179,322.52,1313.24,456.75c15.8,13.59,29.6,29.3,44.76,43.59v2c-14.7-13.73-28-28.93-43.16-42.16q-130.11-129.36-259.59-259.38c-8.89-8.79-17.42-18-27-26C970.14,116.44,911.66,58.49,853.73,0Z"/><path class="cls-1" d="M864.73,0h2c11,11.44,22.41,22.46,33.53,33.77,23,21,44.32,43.68,66.52,65.48l202.5,202.5c8.62,8.38,16.67,17.38,26,25,54.37,54.07,108.36,108.55,162.79,162.56v2c-54.81-54.29-109.07-109.14-163.79-163.52-10.85-9.1-20.3-19.7-30.46-29.54Q1038.51,173,913.27,47.73C896.3,32.67,880.72,16.09,864.73,0Z"/><path class="cls-1" d="M876.73,0h2c60,60.46,120.43,120.44,180.53,180.77,5,5.41,11.15,9.47,16,15q102,102,204,204c26.32,25.78,51.53,52.75,78.75,77.58v1.93c-10.54-9.54-20.88-19.27-30.75-29.51l-202.5-202.5c-22.08-21.59-43.15-44.24-66-65C998.14,121.43,937.16,61,876.73,0Z"/><path class="cls-1" d="M887.73,0h2C905.23,15.9,921,31.54,936.79,47.21c7.14,5.82,13.43,12.55,20,19q130.47,130.51,261,261c22.55,20.39,43.27,42.76,65,64,25.1,25,50,50.22,75.25,75.1v2c-25.6-25.16-50.8-50.74-76.25-76.06-21.76-21.24-42.48-43.61-65-64q-134.92-135.06-270-270C926.31,39.66,907.21,19.6,887.73,0Z"/><path class="cls-1" d="M899.73,0h2c63.47,64,127.43,127.44,191,191.27,20.17,18.09,38.63,38,58,57Q1254.4,351.77,1358,455.35v1c-3.72-1.87-6.28-5.37-9.26-8.14q-99-99-198-198c-20.06-19.61-39.18-40.22-60-59C1027.14,127.43,963.16,64,899.73,0Z"/><path class="cls-1" d="M910.73,0h2c14,14.43,28.39,28.47,42.55,42.75,6.08,5.92,11.72,12.33,18.46,17.56,93.5,93.15,186.57,186.75,280.12,279.85,35.54,33.5,69.16,69.09,104.17,103.19v1.95c-33.82-33.27-67.07-67.14-100.79-100.51-9.29-7.66-17.34-16.66-26-25l-202.5-202.5c-22.2-21.8-43.54-44.52-66.52-65.48C945.13,34.44,927.66,17.48,910.73,0Z"/><path class="cls-1" d="M922.73,0h2c63,63.44,126.4,126.47,189.55,189.75a258.08,258.08,0,0,0,19.5,18.5q112.15,112,224.25,224.1v2c-75.81-75.28-151.06-151.15-226.8-226.5-6.91-5.37-12.7-12-19-18.06C1049.12,126.46,985.67,63.48,922.73,0Z"/><path class="cls-1" d="M933.73,0h2c20,20.45,40.42,40.44,60.53,60.77,23,21,44.32,43.68,66.52,65.48Q1171.47,235,1280.23,343.77c26.82,24.54,51.58,51.29,77.77,76.54v2c-26.52-25.58-51.61-52.66-78.77-77.54q-108.69-108.82-217.48-217.52c-21.57-21.09-42.15-43.24-64.52-63.47C976.14,42.44,954.66,21.49,933.73,0Z"/><path class="cls-1" d="M945.73,0h2c64.48,64.94,129.39,129.47,194,194.25,9.1,9.59,18.91,18.43,28.51,27.49q93.87,93.79,187.74,187.61v2c-63.1-62.66-125.82-125.73-188.74-188.57-10-9.29-20-18.6-29.51-28.49C1075.11,129.46,1010.17,65,945.73,0Z"/><path class="cls-1" d="M956.73,0h2c23.47,23.94,47.4,47.44,71,71.25,18.51,16.44,35.3,34.72,53,52q117.09,116.9,234.09,233.88c14.47,12.59,27.18,27.08,41.16,40.22v2c-13-12.44-25.38-25.49-38.29-38-6.74-5.23-12.38-11.64-18.46-17.56Q1170,212.5,1038.76,81.25c-11.87-10.1-22.38-21.63-33.51-32.5C989.11,32.46,972.68,16.47,956.73,0Z"/><path class="cls-1" d="M968.73,0h2c64,64.45,128.4,128.46,192.55,192.75,11.52,11.14,22.23,23.16,34.5,33.5q80.16,80,160.25,160.1v2c-51.94-51.5-103.48-103.4-155.24-155.07-4.45-4.94-9.67-9-14.55-13.49C1115.13,146.42,1041.65,73.48,968.73,0Z"/><path class="cls-1" d="M979.73,0h2c22,22.44,44.4,44.47,66.55,66.75,7.56,7.44,14.74,15.3,23,22q137.27,137.22,274.5,274.5c4,3.82,8.38,7.15,12.26,11.07v2c-4.08-4-8.43-7.82-12.76-11.55Q1208,227.49,1070.76,90.25c-9.22-7.76-17.49-16.52-26-25C1023.11,43.47,1001.17,22,979.73,0Z"/><path class="cls-1" d="M991.73,0h2c64.48,64.94,129.39,129.47,194,194.25,13.68,13.31,26.56,27.49,41,40,43.09,43,86,86.22,129.24,129.1v2c-43.61-43.15-86.8-86.74-130.25-130.06-14.84-12.76-27.94-27.41-42-41C1121.11,129.47,1056.17,65,991.73,0Z"/><path class="cls-1" d="M1002.73,0h2c28.47,29,57.42,57.45,86,86.27,23.17,21.11,44.64,44,67,66q100.17,100,200.25,200.07v1.07c-10.57-8-19-18.63-28.75-27.64l-204-204c-10.68-10.33-20.59-21.48-32-31C1063.11,60.46,1032.67,30.47,1002.73,0Z"/><path class="cls-1" d="M1014.73,0h2q117,117.68,234.54,234.75c10.28,8.68,19.43,18.57,29,28,25.94,25.84,51.68,51.89,77.75,77.6v2c-27.45-27-54.46-54.42-81.75-81.56-7.94-7.75-15.38-16-24-23Q1133.51,118.85,1014.73,0Z"/><path class="cls-1" d="M1025.73,0h2c32,32.45,64.42,64.45,96.53,96.77,18.67,16.61,35.63,35,53.52,52.48q90.16,90,180.25,180.09v2q-109.68-109-218.74-218.55c-6.22-6.82-13.82-12.15-20-19C1088.12,62.45,1056.67,31.48,1025.73,0Z"/><path class="cls-1" d="M1037.73,0h2c80.47,81,161.42,161.45,242,242.27,26.33,24,50.59,50.3,76.26,75.08v2c-21.27-20.83-42.16-42.05-63.23-63.08-21.84-19.77-42-41.36-63-62C1167.11,129.47,1102.17,65,1037.73,0Z"/><path class="cls-1" d="M1048.73,0h2c31,31.44,62.4,62.47,93.55,93.75,7.17,7.17,14.17,14.52,22,21,64,63.8,127.68,127.89,191.77,191.58v1.93c-61.48-60.94-122.46-122.39-183.75-183.52-8.17-8.88-17.86-16.11-26-25C1115.11,66.46,1081.67,33.48,1048.73,0Z"/><path class="cls-1" d="M1060.73,0h2q126,126.66,252.54,252.75c15.12,12.93,28.28,28,42.76,41.59v2c-15.16-14.27-29-29.94-44.76-43.56Q1187.06,126.32,1060.73,0Z"/><path class="cls-1" d="M1071.73,0h2c31,31.44,62.4,62.47,93.55,93.75,10.3,10,20,20.73,31,30,53.31,53.14,106.35,106.55,159.77,159.59v2c-45.78-45.32-91.13-91.08-136.75-136.56-10.68-10.33-20.59-21.48-32-31C1150.11,78.45,1110.67,39.48,1071.73,0Z"/><path class="cls-1" d="M1083.73,0h2q129,129.69,258.53,258.77c4.23,4.56,9.4,8.12,13.77,12.56v2c-27.77-25.27-53.42-52.79-80.25-79.05C1213.11,129.47,1148.17,65,1083.73,0Z"/><path class="cls-1" d="M1094.73,0h2c41.48,41.93,83.38,83.47,125,125.23,9.79,8.17,18.41,17.59,27.51,26.52,36.28,36.17,72.34,72.56,108.75,108.6v1.92c-36.48-35.94-72.46-72.39-108.75-108.52-9.78-9.56-19-19.71-29.48-28.51C1178.1,83.48,1136.18,42,1094.73,0Z"/><path class="cls-1" d="M1106.73,0h2Q1233.1,124.92,1358,249.33v1.06c-3.22-1.35-5.33-4.3-7.77-6.61C1269.15,162.43,1187.65,81.49,1106.73,0Z"/><path class="cls-1" d="M1117.73,0h2q67.53,68.1,135.58,135.68c6.17,4.79,11.43,10.59,17,16.07,28.61,28.5,57,57.22,85.75,85.6v2c-36.73-35.7-71.89-73.05-109.27-108C1205.13,87.44,1161.16,44,1117.73,0Z"/><path class="cls-1" d="M1129.59,0h1.09c5,3.69,9.13,8.41,13.57,12.75Q1251.17,119.48,1358,226.31v2Q1243.57,114.43,1129.59,0Z"/><path class="cls-1" d="M1140.73,0h2c32.5,32.94,65.4,65.47,98.06,98.25,18.25,17.75,35.47,36.6,54.52,53.48,20.9,20.87,41.64,41.91,62.73,62.59v2c-26-25.07-50.61-51.66-77.27-76C1234.14,93.44,1187.16,47,1140.73,0Z"/><path class="cls-1" d="M1152.68,0h1c20.71,19.35,40.45,39.77,60.58,59.75,48,47.83,95.67,95.9,143.75,143.59v1.93c-64.48-63.94-128.46-128.4-192.76-192.52C1161,8.57,1155.45,5.48,1152.68,0Z"/><path class="cls-1" d="M1163.73,0h2q75.82,76.34,152.14,152.17c14.14,12.25,26.55,26.35,40.17,39.18v2c-12.16-11.6-23.71-23.84-35.8-35.5-6.16-4.8-11.42-10.6-17-16.06C1258.11,94.46,1210.67,47.48,1163.73,0Z"/><path class="cls-1" d="M1175.68,0h1c10.28,11.53,22.44,21.07,33.07,32.25,49.44,49.34,98.68,98.89,148.25,148.1v2c-53.27-52.83-106.14-106.06-159.24-159.06C1190.75,15.87,1181.94,9,1175.68,0Z"/><path class="cls-1" d="M1186.73,0h2c53,53.45,106.43,106.44,159.54,159.77,2.93,3.21,6.73,5.43,9.77,8.53v2c-11.67-9.7-22-20.89-32.75-31.51C1279.12,92.46,1232.67,46.48,1186.73,0Z"/><path class="cls-1" d="M1198.68,0h1c10,10.1,19.68,20.58,30.56,29.76,42.63,42.48,85,85.22,127.76,127.59v2c-43.65-43.11-86.72-86.81-130.29-130-7.82-6.14-14.31-13.72-21.48-20.54C1203.56,6,1200.43,3.51,1198.68,0Z"/><path class="cls-1" d="M1209.73,0h2q72.9,73.43,146.31,146.36v1a12.38,12.38,0,0,1-3.8-2.65C1306.15,96.4,1257.64,48.49,1209.73,0Z"/><path class="cls-1" d="M1221.68,0h1c19.47,20.67,40.73,39.46,60.57,59.75,25,24.84,49.68,49.89,74.75,74.6v2c-23.45-23-46.46-46.42-69.75-69.56-12.12-11.89-23.67-24.4-36.53-35.5C1241.92,20.66,1230.42,11.46,1221.68,0Z"/><path class="cls-1" d="M1232.73,0h2q61.4,61.91,123.3,123.32v2Q1295.13,62.9,1232.73,0Z"/><path class="cls-1" d="M1243.73,0h2c13.69,14.05,27.64,27.87,41.57,41.69,6.19,4.77,11.42,10.59,17,16.06,18,17.82,35.65,35.9,53.75,53.57v2c-26.18-25.25-51-52-77.77-76.54C1268.13,24.44,1255.67,12.48,1243.73,0Z"/><path class="cls-1" d="M1255.73,0h2q49.89,50.4,100.3,100.31v2Q1306.64,51.4,1255.73,0Z"/><path class="cls-1" d="M1266.73,0h2c19.89,19.87,39.22,40.38,60.07,59.23,9.71,9.72,19.32,19.55,29.23,29.08v2c-14.49-13.61-27.66-28.61-42.77-41.55C1299.12,32.45,1282.67,16.48,1266.73,0Z"/><path class="cls-1" d="M1278.73,0h2q38.4,38.91,77.3,77.34v2Q1318.13,39.89,1278.73,0Z"/><path class="cls-1" d="M1289.73,0h2c15,15.44,30.39,30.47,45.55,45.75,6.79,6.63,13.07,13.83,20.75,19.5v2c-9.39-7.28-17.26-16.22-25.75-24.48C1318.11,28.47,1303.68,14.47,1289.73,0Z"/><path class="cls-1" d="M1301.73,0h2q26.91,27.39,54.3,54.34v2Q1329.63,28.4,1301.73,0Z"/><path class="cls-1" d="M1312.73,0h2q21.4,21.92,43.3,43.36v1c-2.34-1-4.07-2.88-5.8-4.63C1339.14,26.41,1325.65,13.48,1312.73,0Z"/><path class="cls-1" d="M1324.73,0h2c10.29,10.58,20.7,21.07,31.3,31.34v1.94Q1341.08,16.93,1324.73,0Z"/><path class="cls-1" d="M1335.73,0h2q9.93,10.38,20.3,20.35v2C1350.36,15.1,1343,7.57,1335.73,0Z"/><path class="cls-1" d="M1347.72,0h2c2.68,2.85,5.41,5.7,8.31,8.35v1.92Q1352.65,5.34,1347.72,0Z"/><path class="cls-1" d="M0,6.61A11.8,11.8,0,0,1,3.26,8.75Q133.46,139,263.73,269.27c19.88,17.72,37.94,37.4,57,56l204,204c10.82,10.52,21,21.79,32.53,31.51C627.89,631.57,698.84,702,769.27,773h-2c-64.49-64.94-129.4-129.47-194-194.25-12.45-13.25-26.42-24.89-39-38l-244.5-244.5c-8.42-8.26-16.39-17-25.5-24.5Q132.1,139.74,0,7.64Z"/><path class="cls-1" d="M0,17.69c35.94,35.49,71.47,71.4,107.24,107.07,19.79,17.46,37.53,37.15,56.51,55.49l204,204c10.68,10.33,20.58,21.48,32,31Q510,525.52,620.25,635.75c21,20.38,40.77,42,62.54,61.5,25.08,25.32,50.55,50.27,75.48,75.75h-2c-25.95-26.14-51.82-52.42-78.25-78.06-26.19-24.76-51.1-50.9-76.8-76.19q-100.47-100.51-201-201c-18.51-16.44-35.3-34.72-53-52l-202.5-202.5c-12.92-12.41-24.8-25.94-38.51-37.49C70.81,90.4,35.56,54.87,0,19.65Z"/><path class="cls-1" d="M0,28.69c78.48,78,156.39,156.49,234.8,234.5,8.64,7,16,15.37,23.95,23.06l202.5,202.5c21.92,21.42,42.81,43.94,65.55,64.49C599.86,626.59,673.35,699.51,746.27,773h-2c-72.47-73-145.43-145.44-218-218.27-22.87-20.74-43.95-43.39-66-65l-202.5-202.5c-8.42-8.26-16.39-17-25.5-24.5Q116.09,146.73,0,30.65Z"/><path class="cls-1" d="M0,40.69C25.82,66,51.05,91.85,76.8,117.19c6.36,4.93,11.73,10.93,17.45,16.56Q227,266.49,359.76,399.24c11.41,9.53,21.31,20.69,32,31l202.5,202.5c19.39,19,37.85,38.88,58,57,27.59,27.84,55.57,55.28,83,83.27h-2c-22-22.44-44.4-44.47-66.55-66.75-8.42-8.26-16.39-17-25.5-24.5q-136.47-136.51-273-273c-22.56-20.39-43.27-42.76-65-64l-202.5-202.5c-8.36-8-15.9-16.84-25-24.06C50.4,93.16,25.44,67.65,0,42.65Z"/><path class="cls-1" d="M0,51.69c49.61,49.16,98.8,98.74,148.25,148.06,21.1,20.55,41.11,42.29,63,62Q348.48,399,485.76,536.24c15.32,13.29,28.93,28.41,43.49,42.51C593.89,643.53,658.83,708,723.27,773h-2c-63.49-63.94-127.4-127.47-191-191.25-15.9-15.44-30.83-31.91-47.52-46.48Q347.07,399.45,211.28,263.75c-18.51-16.44-35.3-34.72-53-52C105.47,159.09,52.94,106.19,0,53.69Z"/><path class="cls-1" d="M0,63.72c18.36,17.4,35.31,36.29,54.28,53Q190,252.56,325.74,388.27c22.52,20.41,43.27,42.72,65,64l204,204c7.93,7.74,15.37,16,24,23,31.17,31.24,62.57,62.26,93.52,93.72h-2c-30-30.44-60.4-60.47-90.54-90.75-9.21-7.76-17.48-16.52-26-25l-204-204c-21.74-21.26-42.49-43.57-65-64Q189.05,253.46,53.28,117.75C34.66,101.31,18,82.8,0,65.66Z"/><path class="cls-1" d="M0,74.68c54.1,53.67,107.8,107.75,161.75,161.57a153.48,153.48,0,0,0,14.5,13.55Q307.58,381,438.75,512.25c7.83,7.84,15.5,15.86,24,23C541.86,614.56,621.34,693.51,700.27,773h-2q-119.24-119.88-239-239.2c-6.87-5.43-12.79-11.91-19-18q-130.49-130.51-261-261c-22.52-20.41-43.27-42.72-65-64-38.11-38-76-76.22-114.25-114.1Z"/><path class="cls-1" d="M0,86.69c6.5,6,12.26,12.7,19.25,18.11q126.82,126.66,253.5,253.45c10.68,10.33,20.58,21.48,32,31q135,135,270,270c5.07,5.62,11.39,9.91,16.53,15.47,32.59,32.83,65.57,65.28,98,98.27h-2c-31.48-32-63.41-63.45-95-95.26-5.77-6.26-12.75-11.22-18.52-17.48q-135-135-270-270c-11.43-9.52-21.33-20.67-32-31Q145,232.54,18.25,105.8C11.65,100.65,6.09,94.37,0,88.65Z"/><path class="cls-1" d="M0,97.69C46.8,144,93.07,190.83,139.79,237.21c8.76,7.2,16.36,15.63,24.46,23.54Q291,387.5,417.74,514.26c3.93,4.44,8.74,7.94,13.05,12C512.87,608.58,595.35,690.51,677.27,773h-2c-63-63.45-126.4-126.47-189.55-189.75-20-19.7-39.42-40-59.7-59.31-20.18-18.76-39.1-38.9-58.8-58.19l-202.5-202.5c-8.62-8.38-16.67-17.38-26-25C92.42,192.14,46.43,145.67,0,99.65Z"/><path class="cls-1" d="M0,109.6c7.33,4.5,12.27,12.06,18.75,17.65l202.5,202.5c17.73,17.28,34.52,35.56,53,52q136.44,136.54,273,273c9.11,7.5,17.08,16.24,25.5,24.5,31.13,31.29,62.58,62.27,93.52,93.75h-2c-33-33.44-66.4-66.47-99.55-99.75-8.16-8.88-17.78-16.2-26-25q-133.5-133.5-267-267c-11.43-9.52-21.33-20.67-32-31Q119.84,230.49,0,110.64Z"/><path class="cls-1" d="M0,120.69c36.13,35.63,71.74,71.8,107.79,107.52,9.29,7.66,17.34,16.66,26,25l202.5,202.5c19.9,19.41,38.87,39.85,59.37,58.62,23.3,22.69,46,46,69.13,68.88C527.88,646.54,591.33,709.52,654.27,773h-2Q524.81,644.86,396.75,517.28c-19.38-17.23-36.88-36.48-55.5-54.53l-202.5-202.5c-10.68-10.32-20.59-21.46-32-31C71.08,193.81,35.77,158,0,122.65Z"/><path class="cls-1" d="M0,131.69c59.6,59.16,118.81,118.73,178.25,178.06,21.74,21.26,42.49,43.57,65,64q136.46,136.56,273,273c11.87,10.09,22.37,21.63,33.51,32.5,31.13,31.29,62.58,62.27,93.52,93.75h-2c-39-39.44-78.4-78.46-117.54-117.75-11.43-9.52-21.34-20.67-32-31l-204-204c-17.31-17-34.1-34.63-51.71-51.34C215.84,350.18,197,330,177.25,310.75Q88.59,222.24,0,133.65Z"/><path class="cls-1" d="M0,143.73c25.48,24.94,50.45,50.4,75.76,75.51,11.41,9.53,21.31,20.69,32,31l202.5,202.5c18.29,17.72,35.47,36.63,54.48,53.56Q498.07,639.58,631.27,773h-2q-120-120.68-240.55-240.75c-10.5-10.17-20.27-21.12-31.5-30.5q-136.47-136.51-273-273c-29-26.68-55.91-55.68-84.28-83.09Z"/><path class="cls-1" d="M0,154.73c59.48,58.94,118.46,118.39,177.75,177.52,10.68,10.33,20.58,21.48,32,31Q320,473.52,430.25,583.75c22.2,21.8,43.54,44.51,66.52,65.48,41.09,41.33,82.57,82.28,123.5,123.77h-2c-41-41.46-82.42-82.44-123.53-123.77-23-20.93-44.3-43.7-66.52-65.48l-202.5-202.5c-8.42-8.26-16.39-17-25.5-24.5Q100.09,256.73,0,156.66Z"/><path class="cls-1" d="M0,166.7c18,17.08,34.65,35.63,53.28,52.05q136.44,136.54,273,273c7.35,5.93,13.84,12.81,20.51,19.49Q477.45,642.18,608.27,773h-2Q469.81,635.86,332.75,499.28c-8.63-7-16.07-15.29-24-23l-246-246c-6.09-5.92-11.73-12.33-18.46-17.56C29.38,198.17,15,183.14,0,168.65Z"/><path class="cls-1" d="M0,177.69C48.78,226,97.13,274.77,145.75,323.25c10.68,10.33,20.58,21.48,32,31Q288,464.52,398.25,574.75c22.2,21.8,43.54,44.51,66.52,65.48,44.09,44.33,88.57,88.28,132.5,132.77h-2c-44-44.45-88.43-88.44-132.54-132.77-23-20.93-44.3-43.7-66.52-65.48l-202.5-202.5c-8.42-8.26-16.39-17-25.5-24.5Q84.1,263.74,0,179.65Z"/><path class="cls-1" d="M0,189.69c12.79,12.66,26.33,24.51,38.75,37.56l202.5,202.5c21.74,21.26,42.48,43.57,65,64Q445.76,633.42,585.41,773h-1.09c-5-3.69-9.14-8.42-13.57-12.75l-249-249c-9.06-8.95-17.76-18.28-27.51-26.5Q199,389.49,103.75,294.25C69.18,260,35.43,225,0,191.68Z"/><path class="cls-1" d="M0,200.69c27.94,27.49,55.47,55.4,83.25,83.06,20.29,19.71,39.47,40.64,60.48,59.56q137.63,137.35,275,275c20,18,38.32,37.68,57.52,56.48,32.64,32.78,65.58,65.27,98,98.25h-2c-46.48-47-93.43-93.45-140-140.27-25.19-23.09-48.62-48.05-73-72l-202.5-202.5c-9.76-10.62-21.12-19.51-31-30C83.8,286.43,42.1,244.35,0,202.68Z"/><path class="cls-1" d="M0,212.6c3.61,1.63,5.91,5,8.76,7.63q115.46,115.56,231,231c10.68,10.33,20.58,21.48,32,31q135,135,270,270c6.45,7.31,15.47,12.24,20.58,20.74h-1a154.24,154.24,0,0,0-16.07-15.24q-136.46-136.53-273-273c-22.56-20.39-43.27-42.76-65-64Q103.6,317.24,0,213.64Z"/><path class="cls-1" d="M0,223.69c17.26,16.83,34.14,34.07,51.25,51.06,20.47,19.87,39.78,41,61,60.05Q251.08,473.45,389.76,612.24c7.15,5.81,13.49,12.5,20,19,47.13,47.29,94.58,94.27,141.52,141.75h-2c-33-33.44-66.41-66.47-99.56-99.75-21.37-21-41.87-42.85-64-63Q251.55,475.95,117.26,341.74C77.27,304,39.37,264.09,0,225.69Z"/><path class="cls-1" d="M0,234.7c78.31,77.77,156.06,156.13,234.29,234a142.42,142.42,0,0,1,14,13.06l267,267c8.48,7.55,17.37,15.06,24.07,24.25h-1c-10.82-12-23.43-22.1-34.57-33.75q-132-132-264-264c-11.43-9.52-21.33-20.67-32-31Q103.83,340.5,0,236.65Z"/><path class="cls-1" d="M0,246.69c25.48,24.95,50.38,50.49,75.8,75.5,8.64,7,16,15.37,24,23.06l202.5,202.5c21.76,21.24,42.47,43.61,65,64C420.88,665.56,474.84,719,528.27,773h-2c-52.48-53-105.43-105.45-158-158.27-23.17-21.11-44.64-44-67-66L98.75,346.25c-8-7.69-15.31-16.09-24-23.06C49.72,298.51,25.14,273.31,0,248.68Z"/><path class="cls-1" d="M0,257.7c48.61,48.14,96.8,96.73,145.25,145.05,21.76,21.24,42.47,43.61,65,64q136.44,136.54,273,273c9.12,7.49,17.06,16.26,25.52,24.48,2.65,2.79,5.78,5.25,7.55,8.77h-1c-10.84-10.94-21.36-22.24-33.07-32.25q-132-132-264-264c-5.55-5.47-10.78-11.28-17-16.06-67.22-66.88-134-134.2-201.29-201Z"/><path class="cls-1" d="M0,269.69c14.81,14.28,29.05,29.15,43.8,43.5,6.91,5.37,12.69,12,19,18.06Q192.49,461,322.23,590.77c28.68,26.6,55.63,55,83.52,82.48,33.13,33.29,66.58,66.27,99.52,99.75h-2c-56.48-56.93-113.38-113.47-170-170.23-8.72-7.25-16.47-15.54-24.51-23.52Q179,449.54,49.21,319.79C32,304.65,16.68,287.44,0,271.69Z"/><path class="cls-1" d="M0,280.69c37.94,37.49,75.47,75.41,113.25,113.06,21.76,21.24,42.47,43.61,65,64Q314,593.56,449.73,729.27c15.63,13.73,29.88,29,44.54,43.73h-2C478,758.55,464,743.75,448.74,730.26Q313,594.47,177.28,458.75c-22.56-20.39-43.27-42.76-65-64C74.81,357.41,37.56,319.86,0,282.65Z"/><path class="cls-1" d="M0,292.69c35.1,32.95,68.52,67.68,102.75,101.56q96,96,192,192c7.8,6.48,14.81,13.84,22,21C371.88,662.54,427.33,717.52,482.27,773h-2c-55-55.45-110.4-110.47-165.55-165.75-7-7-13.8-14.25-21.51-20.49q-137.49-137.52-275-275C11.62,306.63,6.1,300.34,0,294.65Z"/><path class="cls-1" d="M0,303.71c45.12,44.64,89.82,89.71,134.74,134.56,20.5,18.44,39.29,38.7,59,58l204,204c10.29,10,20,20.72,31,30,14.18,14.24,28.56,28.29,42.53,42.74h-2c-13-13.44-26.41-26.43-39.5-39.76-22.74-20.55-43.63-43.07-65.55-64.49l-202.5-202.5c-8.36-8-15.9-16.84-24.95-24.06C91.06,396.83,45.78,351,0,305.66Z"/><path class="cls-1" d="M0,315.61c3.22,1.35,5.3,4.29,7.77,6.61Q125.43,440.06,243.25,557.75c9.27,9.06,18,18.68,28,27C333.9,647.52,396.82,710,459.27,773h-2c-62-62.45-124.42-124.45-186.53-186.76-20-17.91-38.28-37.73-57.52-56.49Q106.58,423.24,0,316.65Z"/><path class="cls-1" d="M0,326.73c35.51,34.91,70.4,70.45,105.79,105.48a154.47,154.47,0,0,1,12.47,11.53q133.44,133.56,267,267c21.79,19.91,42.22,41.29,63,62.23h-2c-20.39-20.37-40.22-41.37-61.57-60.73q-130.44-130.56-261-261c-6.26-6.08-12-12.69-19-18.06C69.73,398.5,35.12,363.31,0,328.66Z"/><path class="cls-1" d="M0,337.69c62.1,61.66,123.8,123.74,185.75,185.56,18.84,18.49,36.91,37.8,56.52,55.48C306.86,643.56,371.84,708,436.27,773h-2c-64-64.45-128.42-128.45-192.54-192.77-5.23-5.8-11.78-10.18-17-16Q112.36,452,0,339.66Z"/><path class="cls-1" d="M0,349.7C24.82,374,49.06,398.84,73.79,423.21c9.29,7.66,17.34,16.66,26,25l202.5,202.5c21.88,21.45,42.85,43.87,65.52,64.48,19.09,19.33,38.57,38.28,57.5,57.77h-2c-14-14.44-28.39-28.47-42.55-42.75-8.26-8.08-16-16.69-25-24Q217,567.56,78.25,428.8c-27-24.71-51.87-51.74-78.25-77.15Z"/><path class="cls-1" d="M0,360.71c63.13,62.63,125.79,125.74,188.75,188.54,9.7,10.33,20.89,19.07,30.5,29.5C283.89,643.53,348.83,708,413.27,773h-2c-64.49-64.94-129.39-129.47-194-194.25-8.82-9.55-19.12-17.52-28-27Q94.59,457.25,0,362.66Z"/><path class="cls-1" d="M0,372.73c16.42,15.34,31.28,32.35,48.25,47.07q126.83,126.66,253.5,253.45c10.68,10.33,20.58,21.48,32,31,22.8,22.94,45.9,45.6,68.51,68.74h-2c-21.47-22-43.42-43.44-65-65.27-22.87-20.74-43.95-43.39-66-65L66.75,440.25c-8.36-8-15.9-16.84-25-24.06C27.71,402.52,14.14,388.29,0,374.66Z"/><path class="cls-1" d="M0,383.73c56,55.45,111.47,111.38,167.24,167,11.44,9.49,21.33,20.67,32,31C262.89,645.53,326.83,709,390.27,773h-2c-64-64.45-128.4-128.47-192.55-192.75-17.39-18-36.19-34.45-53.5-52.5C94.81,480.41,47.58,432.86,0,385.66Z"/><path class="cls-1" d="M0,395.69c12,11.47,24.3,22.53,35.75,34.56l202.5,202.5c21.92,21.42,42.81,43.94,65.55,64.49,25.07,25.34,50.55,50.28,75.47,75.76h-2c-24.47-25-49.42-49.44-74-74.27-22.87-20.74-43.95-43.39-66-65L34.75,431.25c-11.13-11.7-23.1-22.46-34.75-33.6Z"/><path class="cls-1" d="M0,406.69c45.28,44.82,90.14,90.07,135.24,135.07,13.51,11.42,25.28,24.72,38,37C237.89,643.53,302.83,708,367.27,773h-2c-64.49-64.94-129.39-129.47-194-194.25-12.34-12-23.91-24.81-37-36C89.47,498.08,44.9,453.19,0,408.65Z"/><path class="cls-1" d="M0,418.6c3.38,1.53,5.62,4.66,8.27,7.13q98.93,99.07,198,198c21.92,21.42,42.81,43.94,65.55,64.49,28.07,28.34,56.55,56.27,84.47,84.76h-2c-23-23.44-46.4-46.47-69.55-69.75-7.9-7.78-15.41-16-24-23Q130.31,550,0,419.67Z"/><path class="cls-1" d="M0,429.73c38.94,37.8,76.2,77.38,115.77,114.5C191.86,620.56,268.34,696.51,344.27,773h-2c-76-76.45-152.42-152.42-228.5-228.76-22.74-20.55-43.63-43.07-65.55-64.49-16.11-16-32-32.22-48.25-48.09Z"/><path class="cls-1" d="M0,440.69c60.27,59.83,120.14,120.07,180.25,180.06,19.91,19.44,38.84,39.92,59.55,58.49,31.07,31.34,62.55,62.27,93.47,93.76h-2c-30-30.46-60.43-60.44-90.53-90.77-25.34-23.27-49-48.37-73.52-72.48C111.47,554.09,55.94,498.19,0,442.69Z"/><path class="cls-1" d="M0,452.69C23.78,476,47.14,499.76,70.74,523.26c19.67,17.61,37.62,37,56.51,55.49C191.89,643.53,256.83,708,321.27,773h-2c-64-64.45-128.4-128.47-192.55-192.75-19.39-19-37.85-38.88-58-57C45.83,500.4,23.09,477.36,0,454.68Z"/><path class="cls-1" d="M0,463.69q96.65,96,192.74,192.57c6,6.65,13.43,11.87,19.52,18.48,32.61,32.81,65.58,65.28,98,98.26h-2c-33-33.46-66.43-66.44-99.53-99.77-5-5.42-11.16-9.48-16-15Q96.37,562,0,465.65Z"/><path class="cls-1" d="M0,475.69c16,15.07,30.65,31.61,47.17,46.14Q172.9,647.23,298.27,773h-2Q177.83,653.84,58.75,535.25c-5.72-5.63-11.1-11.62-17.45-16.56C27.39,505.17,14,491.15,0,477.69Z"/><path class="cls-1" d="M0,486.69c52.27,51.83,104.14,104.07,156.25,156.06,10.06,10.64,21.54,19.75,31.5,30.5,33.14,33.29,66.58,66.27,99.52,99.75h-2c-33-33.44-66.4-66.47-99.55-99.75-9.76-10.62-21.12-19.51-31-30C103.13,591.75,51.74,540,0,488.66Z"/><path class="cls-1" d="M0,498.69C29.44,526,57.18,555,85.75,583.25,148.88,646.54,212.33,709.52,275.27,773h-2c-63-63.45-126.4-126.47-189.55-189.75-27.93-27.52-55-56-83.75-82.6Z"/><path class="cls-1" d="M0,509.69c45.28,44.82,90.14,90.07,135.24,135.07,12.68,10.59,23.61,23.06,35.51,34.49,31.13,31.29,62.58,62.27,93.52,93.75h-2c-33-33.44-66.4-66.47-99.55-99.75-9.46-9.21-18.32-19.07-28.5-27.5C89.48,601.07,44.9,556.2,0,511.65Z"/><path class="cls-1" d="M0,521.6c3.61,1.63,5.92,5,8.76,7.63C89.87,610.55,171.34,691.51,252.27,773h-2Q125.41,647.57,0,522.64Z"/><path class="cls-1" d="M0,532.73c34.48,33.93,68.45,68.4,102.76,102.51,13.79,11.82,26,25.39,39,38,33.13,33.29,66.58,66.27,99.52,99.75h-2c-33-33.44-66.4-66.47-99.55-99.75-12.92-12.41-24.8-25.94-38.51-37.49C67.48,602.07,33.9,568.2,0,534.66Z"/><path class="cls-1" d="M0,543.69Q114.85,658.11,229.27,773h-2Q113.92,659.08,0,545.65Z"/><path class="cls-1" d="M0,555.69c19.46,19,38.45,38.42,57.75,57.56,6.75,6.61,13.08,13.67,20.5,19.55,46.68,46.72,93.57,93.25,140,140.2h-2c-45-45.46-90.44-90.44-135.54-135.78C52.91,611.71,27.17,583.92,0,557.65Z"/><path class="cls-1" d="M0,566.68Q96.14,662.2,191.74,758.26c4.35,5.42,11.11,8.67,14.58,14.74h-1c-24.12-22.3-46.66-46.25-70.11-69.25-45.11-45-90-90.22-135.25-135.1Z"/><path class="cls-1" d="M0,578.69c15.72,14.71,29.94,31,46.25,45.11,49.68,49.72,99.57,99.25,149,149.2h-2c-32.5-32.94-65.4-65.47-98.06-98.25-20-19.63-39.2-40.19-60-59C23.5,604.05,11.9,592.2,0,580.65Z"/><path class="cls-1" d="M0,589.73c47.48,46.94,94.46,94.39,141.75,141.52,10.68,10.32,20.58,21.49,32,31,3.34,3.41,7.24,6.47,9.56,10.74h-1c-5.1-5.35-10.16-10.77-16-15.31C110.73,702.48,55.61,646.82,0,591.66Z"/><path class="cls-1" d="M0,601.69c27.07,25,52.54,51.66,78.75,77.56,31.13,31.29,62.58,62.27,93.52,93.75h-2c-31-31.44-62.41-62.47-93.56-93.75C51.21,654,26.36,628,0,603.64Z"/><path class="cls-1" d="M0,612.69c26.29,25.81,52.13,52.08,78.25,78.06,21.92,21.42,42.82,43.94,65.55,64.5,5.37,6,12.17,10.89,16.52,17.75h-1c-12.63-13.85-27.11-25.75-40.07-39.25C79.47,694.08,39.9,654.19,0,614.65Z"/><path class="cls-1" d="M0,624.6a13.74,13.74,0,0,1,4.31,3.14c48.21,48.53,96.88,96.6,145,145.26h-2Q73.91,699.07,0,625.64Z"/><path class="cls-1" d="M0,635.69c38.07,37,74.55,75.73,113.27,112,7.81,8.6,17.29,15.82,24,25.27h-1c-7.54-7.9-15.4-15.49-23.06-23.26C74.59,713.36,38,674.75,0,637.66Z"/><path class="cls-1" d="M0,646.69Q63.38,709.6,126.27,773h-2Q62.41,710.57,0,648.65Z"/><path class="cls-1" d="M0,658.7c23.28,22.81,46.14,46,69.23,69.07,16.14,14.22,30.88,30,46,45.23h-2C98.47,758.07,84,742.72,68.23,728.77,45.49,706.06,22.9,683.19,0,660.65Z"/><path class="cls-1" d="M0,669.69Q51.87,721.1,103.27,773h-2Q50.91,722.08,0,671.65Z"/><path class="cls-1" d="M0,681.7C15.87,696.58,30.27,713,46.76,727.25,61.9,742.53,77.32,757.53,92.27,773h-2c-14-14.44-28.41-28.46-42.53-42.77C31,715.58,16.1,699,0,683.66Z"/><path class="cls-1" d="M0,692.69Q40.38,732.59,80.27,773h-2Q39.41,733.6,0,694.68Z"/><path class="cls-1" d="M0,704.69C23.9,726.59,46.43,750,69.27,773h-2C45.09,750.66,23.21,727.94,0,706.65Z"/><path class="cls-1" d="M0,715.69Q28.88,744.1,57.27,773h-2Q27.9,745.1,0,717.69Z"/><path class="cls-1" d="M0,727.6c2.78,1.17,4.67,3.61,6.79,5.64C19.87,746.57,33.34,759.52,46.27,773h-2Q22.39,750.59,0,728.64Z"/><path class="cls-1" d="M0,738.69Q17.4,755.57,34.27,773h-2C21.66,762.09,10.94,751.26,0,740.66Z"/><path class="cls-1" d="M0,749.69C8,757.23,15.65,765.1,23.27,773h-2c-7-7.24-14-14.4-21.3-21.35Z"/><path class="cls-1" d="M0,761.69c3.92,3.59,7.64,7.41,11.27,11.31h-2c-3-3.2-6.06-6.38-9.31-9.35Z"/></g></g></svg>